<svg xmlns="http://www.w3.org/2000/svg" width="50.5" height="51.69" viewBox="0 0 50.5 51.69">
  <defs>
    <style>
      .cls-1 {
        fill: #16c56d;
        fill-rule: evenodd;
      }
    </style>
  </defs>
  <path id="Agro_Robotics" data-name="Agro Robotics" class="cls-1" d="M366.466,1417.25h1.055v1.05h-1.055v-1.05Zm45.981,25.84H394.519v-25.52a2.092,2.092,0,0,0,.316-0.32h17.4a6.16,6.16,0,0,1,.211,2.43v23.41Zm-16.874-10.13h15.819V1418.3H395.679c-0.318.88-.106,3.38-0.106,4.54v10.12Zm-30.267-14.55h1.054v1.05h-1.054v-1.05Zm2.215,0h1.054v1.05h-1.054v-1.05Zm-1.055,1.05h1.055v1.06h-1.055v-1.06Zm16.663,0.64a3.473,3.473,0,0,1,2,.31l0.316,0.42c0.1,0.08.211,0.15,0.316,0.22a1.1,1.1,0,0,0,.211.42,2.4,2.4,0,0,1,0,1.16v0.42h-0.105c-0.035.14-.071,0.28-0.106,0.42-0.07.04-.14,0.07-0.211,0.11v0.21c-0.07.03-.14,0.07-0.211,0.1V1424h-0.21c-0.036.07-.071,0.14-0.106,0.21a0.912,0.912,0,0,0-.422.21,2.393,2.393,0,0,1-1.16,0h-0.422v-0.1a1.451,1.451,0,0,1-.843-0.64c-0.071-.03-0.141-0.07-0.211-0.1v-0.21h-0.106a0.846,0.846,0,0,0-.211-0.43,3.532,3.532,0,0,1,.317-2l0.316-.21c0.07-.11.141-0.21,0.211-0.32h0.211v-0.1A0.813,0.813,0,0,0,383.129,1420.1Zm3.691,0.52h6.538v3.27H386.82v-0.1a2.97,2.97,0,0,0,.422-2.01h-0.106v-0.52h-0.105C386.961,1421.05,386.89,1420.83,386.82,1420.62Zm16.346,11.18h-4.851a2.09,2.09,0,0,1-.422-1.37H398v-0.1l-0.317-.21v-0.22c-0.07-.03-0.14-0.07-0.21-0.1v-0.32h-0.106v-0.95a2.066,2.066,0,0,0,.422-0.73c-0.07-.04-0.141-0.07-0.211-0.11v-0.21h-0.105v-0.21h-0.106v-0.95h0.106V1426c0.07-.03.14-0.07,0.21-0.1v-0.21h0.106c0.07-.11.14-0.21,0.211-0.32,0.351-.11.7-0.21,1.054-0.32a2.055,2.055,0,0,1,1.055-2,1.084,1.084,0,0,1,.844-0.21v0.1h0.316v0.11h0.211l0.316,0.42c0.071,0.04.141,0.07,0.211,0.11,0.036,0.14.071,0.28,0.106,0.42h0.1a5.133,5.133,0,0,0,.211,1.05c0.317,0.11.633,0.21,0.949,0.32v0.11c0.141,0.1.282,0.21,0.422,0.31a0.958,0.958,0,0,0,.211.42v1.16a0.79,0.79,0,0,0-.316.74c0.07,0.04.14,0.07,0.211,0.11a2.564,2.564,0,0,1,.105,1.37h-0.105c-0.035.14-.071,0.28-0.106,0.42l-0.316.21v0.95h-0.106v0.32h-0.105C403.237,1431.59,403.2,1431.7,403.166,1431.8Zm-22.568-8.54a3.451,3.451,0,0,0,1.371,1.9h0.211v0.1h0.211v0.11c0.175,0.04.351,0.07,0.527,0.11v0.1a4.567,4.567,0,0,0-.844.84,5.539,5.539,0,0,0-.949.95H381.02v-0.1h-0.106c-0.035-.18-0.07-0.35-0.1-0.53H380.7v-0.21h-0.1v-0.21l-0.317-.21a2.045,2.045,0,0,0-1.582-.95A6.623,6.623,0,0,1,380.6,1423.26Zm27.736,7.28a1.229,1.229,0,0,1-.527,1.16v0.1h-3.691v-0.1a1.855,1.855,0,0,0,.527-0.85v-0.73h0.105v-0.22c0.071-.03.141-0.07,0.211-0.1,0.106-.32.211-0.63,0.317-0.95a2.492,2.492,0,0,0-.211-1.27,2.152,2.152,0,0,1,.211-1.05,4.389,4.389,0,0,0-.211-1.48,0.176,0.176,0,0,0,.105-0.1c0.387-.04.774-0.07,1.16-0.11,0.136,0.05.813,0.53,0.844,0.53v-0.11l0.316-.21v-0.1c0.763-.5,2.053-0.62,2.531.21a2.183,2.183,0,0,1,0,1.9c-0.07.03-.14,0.07-0.211,0.1v0.21h-0.105a0.906,0.906,0,0,0-.211.43c0.455,0.28.439,0.92,0.422,1.68a1.994,1.994,0,0,1-.844.85v0.1C408.826,1430.47,408.58,1430.5,408.334,1430.54Zm-8.753-4.96v1.27h1.054a3.726,3.726,0,0,0,.106-1.16A3.663,3.663,0,0,0,399.581,1425.58Zm-21.725.63a1.72,1.72,0,0,1,1.054.21,1.084,1.084,0,0,1,.739.74c0.44,0.42.1,1.22,0,1.69l-0.739.63a2.48,2.48,0,0,1-1.582-.1l-0.1-.21c-0.269-.2-0.2.11-0.316-0.32a1.364,1.364,0,0,1-.211-1.48v-0.31c0.07-.04.14-0.07,0.211-0.11,0.035-.1.07-0.21,0.105-0.31h0.211c0.035-.07.07-0.14,0.1-0.22,0.176-.03.352-0.07,0.528-0.1v-0.11Zm28.791,1.06v1.26H407.7a3.7,3.7,0,0,0,.106-1.16,0.175,0.175,0,0,1-.106-0.1h-1.054Zm-6.012,2.32H401.9v-1.06A0.826,0.826,0,0,0,400.635,1429.59Zm-23.518.95a3.17,3.17,0,0,0,1.582.21v-0.11c0.211-.03.422-0.07,0.633-0.1v1.9h2.32c0.106,0.17.211,0.35,0.317,0.52,0.07,0.04.14,0.07,0.211,0.11v0.21c0.14,0.11.281,0.21,0.421,0.32v0.21c0.141,0.1.282,0.21,0.422,0.31v0.21c0.141,0.11.282,0.22,0.422,0.32v0.21l0.317,0.21v4.75a2.013,2.013,0,0,0-.739.31c-0.035.07-.07,0.15-0.105,0.22-0.141.03-.281,0.07-0.422,0.1l-0.1.21H382.18c-0.036.07-.071,0.14-0.106,0.21-0.14.04-.281,0.07-0.422,0.11l-0.1.21h-0.211c-0.035.07-.07,0.14-0.106,0.21-0.14.04-.281,0.07-0.421,0.11l-0.106.21h-0.211l-0.105.21c-0.141.03-.281,0.07-0.422,0.1-0.035.07-.07,0.14-0.106,0.21-0.1.04-.211,0.07-0.316,0.11v-0.21a4.068,4.068,0,0,0,.844-1.27c0.07-.03.14-0.07,0.211-0.1v-0.21c0.07-.04.14-0.07,0.211-0.11v-0.21c0.07-.04.14-0.07,0.211-0.11v-0.21c0.07-.03.14-0.07,0.21-0.1a2.285,2.285,0,0,0,.422-1.48,4.8,4.8,0,0,0-.1-2c-0.035-.11-0.07-0.21-0.106-0.32h-0.1v-0.21a2.13,2.13,0,0,1-.211-0.11v-0.21c-0.07-.03-0.141-0.07-0.211-0.1v-0.21c-0.07-.04-0.14-0.07-0.211-0.11v-0.21h-0.1l-0.106-.21h-4.64a4.583,4.583,0,0,1-.844,1.27v0.21c-0.07.03-.14,0.07-0.211,0.1v2.96H374.9v0.21c0.07,0.03.14,0.07,0.211,0.1v0.21c0.07,0.04.14,0.07,0.211,0.11v0.21c0.07,0.03.14,0.07,0.211,0.1v0.22c0.07,0.03.14,0.07,0.21,0.1v0.21c0.071,0.04.141,0.07,0.211,0.11v0.21a4.4,4.4,0,0,1,.844,1.26,2.016,2.016,0,0,1-.738-0.31c-0.035-.07-0.07-0.14-0.106-0.21-0.14-.04-0.281-0.07-0.421-0.11-0.036-.07-0.071-0.14-0.106-0.21h-0.211l-0.105-.21c-0.141-.04-0.282-0.07-0.422-0.11-0.035-.07-0.07-0.14-0.106-0.21h-0.21c-0.036-.07-0.071-0.14-0.106-0.21-0.141-.03-0.281-0.07-0.422-0.1l-0.105-.21h-0.211c-0.035-.07-0.071-0.15-0.106-0.22h-0.211v-0.1H373l-0.105-.21c-0.105-.04-0.211-0.07-0.316-0.11v-4.53h0.1c0.035-.11.07-0.21,0.106-0.32,0.14-.1.281-0.21,0.421-0.31v-0.22c0.141-.1.282-0.21,0.422-0.31v-0.21c0.141-.11.282-0.21,0.422-0.32v-0.21c0.141-.11.281-0.21,0.422-0.32v-0.21l0.316-.21v-0.1h2.32v-1.9Zm26.26,5.16c-0.2.17-.884,0.17-1.16,0.32v0.11h-0.211c-0.07.1-.14,0.21-0.211,0.31h-0.21c-0.036.07-.071,0.14-0.106,0.21h-0.1v0.22l-0.317.21v0.21h-0.105v0.21h-0.106v0.31h-0.105v0.64h-0.106a0.264,0.264,0,0,0,.106.31c0.035,0.32.07,0.64,0.105,0.95,0.071,0.04.141,0.07,0.211,0.11,0.035,0.14.071,0.28,0.106,0.42,0.07,0.04.14,0.07,0.211,0.11l0.527,0.63,0.633,0.21v0.1h0.316v0.11a2.946,2.946,0,0,0,1.687-.21,2.98,2.98,0,0,0,1.477-1.16,0.909,0.909,0,0,1,.211-0.42c0.035-.56.07-1.13,0.1-1.69h-0.1v-0.32h-0.106v-0.21h-0.105A2.858,2.858,0,0,0,403.377,1435.7Zm-0.421,2.33h1.054v1.05h-1.054v-1.05Zm-6.75,6.22v2.21h-1.16v0.11c-0.176.03-.352,0.07-0.527,0.1v0.11h-0.106v-0.11a4.468,4.468,0,0,1-.844-0.95l-0.527-.42v-0.21a3.014,3.014,0,0,0,.738-0.42h0.211v-0.11h0.317A4.684,4.684,0,0,1,396.206,1444.25Zm1.16,0h2.215v2.21h-2.215v-2.21Zm3.375,0h2.215v2.21h-2.215v-2.21Zm3.375,0h2.214v2.21h-2.214v-2.21Zm3.374,0h2.215v2.21H407.49v-2.21Zm3.375,0a5.368,5.368,0,0,1,2.848.74,0.175,0.175,0,0,1-.106.1c-0.246.28-.492,0.56-0.738,0.85-0.07.03-.141,0.07-0.211,0.1v0.21l-0.316.21v0.11H411.92a1.929,1.929,0,0,0-1.055-.11v-2.21Zm4.957,3.9h-2.215a7.289,7.289,0,0,1-.422-0.95,5.045,5.045,0,0,0,1.371-1.48,0.191,0.191,0,0,1,.106.11A3.383,3.383,0,0,1,415.822,1448.15Zm-22.358,0h-2.215c0.035-.28.071-0.56,0.106-0.84h0.1a2.829,2.829,0,0,1,.633-1.16v-0.11H392.3v0.11c0.262,0.15.066,0.12,0.211,0.31,0.07,0.04.141,0.07,0.211,0.11l0.527,0.63c0.141,0.11.281,0.21,0.422,0.32,0.054,0.2-.061.14-0.106,0.21Zm2.742,0H410.76v1.05H396.206v-1.05Zm-4.957,1.16h2.215c0.085,0.42.319,0.56,0.422,0.95-0.387.32-.774,0.63-1.16,0.95-0.07.1-.141,0.21-0.211,0.31H392.2a0.861,0.861,0,0,0-.21-0.42h-0.106v-0.21c-0.07-.03-0.141-0.07-0.211-0.1v-0.21h-0.105v-0.22A2.406,2.406,0,0,1,391.249,1449.31Zm24.573,0a5.665,5.665,0,0,1-1.055,2.32h-0.211c-0.36-.62-1.116-0.86-1.476-1.48a5.375,5.375,0,0,0,.527-0.84h2.215ZM396.206,1451v2.21a6.211,6.211,0,0,1-2.953-.84v-0.11c0.751-.41,1.05-1.33,2.109-1.37V1451h0.844Zm17.507,1.47c-0.106.04-.211,0.07-0.317,0.11v0.1h-0.211v0.11c-0.175.04-.351,0.07-0.527,0.11v0.1h-0.422a4.178,4.178,0,0,1-1.371.21V1451c0.422-.04.844-0.07,1.266-0.11l0.316,0.42h0.211c0.246,0.28.492,0.57,0.738,0.85h0.211C413.642,1452.26,413.677,1452.37,413.713,1452.47ZM397.366,1451h2.215v2.21h-2.215V1451Zm3.375,0h2.215v2.21h-2.215V1451Zm3.375,0h2.214v2.21h-2.214V1451Zm3.374,0h2.215v2.21H407.49V1451Zm-36.6,7.91c0.281,0.03.563,0.07,0.844,0.1a1.819,1.819,0,0,0,.422.32v0.21a2.246,2.246,0,0,1,.211.11,2.434,2.434,0,0,1,.211,1.16h-0.106v0.42h-0.1a0.8,0.8,0,0,0-.211.52h0.105v0.22c0.071,0.03.141,0.07,0.211,0.1l0.106,1.06h-0.106c-0.035.17-.07,0.35-0.1,0.52-0.141.11-.282,0.21-0.422,0.32-0.191.39,0.123,1.07-.211,1.48a2.529,2.529,0,0,1-1.266.1h-3.691c-0.035-.1-0.07-0.21-0.1-0.32h-0.106v-0.21h-0.105v-1.05c-0.141-.11-0.281-0.21-0.422-0.32a2.267,2.267,0,0,1-.211-1.16h0.106v-0.42c0.07-.03.14-0.07,0.21-0.1v-0.22h0.106a0.8,0.8,0,0,0-.211-0.52h-0.1v-0.42h-0.106v-0.64h0.106v-0.31h0.1v-0.21a2.13,2.13,0,0,1,.211-0.11v-0.21c0.105-.04.211-0.07,0.316-0.11l0.106-.21c0.281-.03.562-0.07,0.844-0.1-0.008-1.34.628-2.34,2-2.32a0.82,0.82,0,0,0,.422.21v0.1h0.211v0.11c0.07,0.03.141,0.07,0.211,0.1v0.22c0.07,0.03.141,0.07,0.211,0.1v0.21A2.705,2.705,0,0,1,370.9,1458.91Zm10.335,6.64h-4.851a2.09,2.09,0,0,1-.422-1.37h0.106v-0.11l-0.317-.21v-0.21c-0.07-.03-0.14-0.07-0.21-0.1v-0.32H375.43v-0.95a2.023,2.023,0,0,0,.422-0.74c-0.07-.03-0.141-0.07-0.211-0.1v-0.21h-0.105v-0.21H375.43v-0.95h0.106v-0.32c0.07-.03.14-0.07,0.21-0.1v-0.22h0.106c0.07-.1.141-0.21,0.211-0.31,0.351-.11.7-0.21,1.054-0.32a2.046,2.046,0,0,1,1.055-2,1.046,1.046,0,0,1,.844-0.21v0.1h0.316v0.11h0.211l0.316,0.42a2.024,2.024,0,0,1,.211.11c0.036,0.14.071,0.28,0.106,0.42h0.105a5.274,5.274,0,0,0,.211,1.05c0.317,0.11.633,0.21,0.949,0.32v0.1c0.141,0.11.282,0.21,0.422,0.32a0.958,0.958,0,0,0,.211.42v1.16a0.78,0.78,0,0,0-.316.74,2.246,2.246,0,0,1,.211.11,2.564,2.564,0,0,1,.105,1.37h-0.105c-0.035.14-.071,0.28-0.106,0.42l-0.316.21v0.95h-0.106v0.31h-0.1C381.3,1465.34,381.266,1465.45,381.23,1465.55Zm4.641,0c-0.035-.1-0.071-0.21-0.106-0.32h-0.1v-0.31h-0.106v-0.95l-0.316-.21-0.105-.42h-0.106a2.553,2.553,0,0,1,.106-1.37,2.116,2.116,0,0,1,.21-0.11,0.778,0.778,0,0,0-.316-0.74,2.966,2.966,0,0,1,.211-1.58c0.141-.11.281-0.21,0.422-0.32v-0.1c0.351-.11.7-0.21,1.054-0.32a1.89,1.89,0,0,1,1.055-2c0.2-.21.053-0.01,0.317-0.11a1.444,1.444,0,0,1,1.054.11l0.316,0.42h0.106l0.211,0.63h0.1a3.973,3.973,0,0,0,.211.95c0.317,0.11.633,0.21,0.949,0.32,0.071,0.1.141,0.21,0.211,0.31h0.106v0.22c0.07,0.03.14,0.07,0.211,0.1,0.035,0.42.07,0.84,0.105,1.27a0.8,0.8,0,0,0-.211.42c-0.07.03-.14,0.07-0.211,0.1a2.023,2.023,0,0,0,.422.74v0.95h-0.105v0.32c-0.071.03-.141,0.07-0.211,0.1v0.21l-0.317.21v0.11h0.106a1.546,1.546,0,0,1-.211.95v0.21a1.913,1.913,0,0,1-1.371.21h-3.691Zm13.71-6.64c0.281,0.03.562,0.07,0.843,0.1a1.84,1.84,0,0,0,.422.32v0.21a2.024,2.024,0,0,1,.211.11,2.41,2.41,0,0,1,.211,1.16h-0.1v0.42h-0.106a0.8,0.8,0,0,0-.211.52h0.106v0.22c0.07,0.03.14,0.07,0.211,0.1,0.035,0.35.07,0.7,0.1,1.06h-0.1c-0.035.17-.071,0.35-0.106,0.52-0.14.11-.281,0.21-0.422,0.32-0.191.39,0.124,1.07-.211,1.48a2.525,2.525,0,0,1-1.265.1h-3.691c-0.035-.1-0.071-0.21-0.106-0.32h-0.105v-0.21h-0.106v-1.05c-0.14-.11-0.281-0.21-0.421-0.32a2.246,2.246,0,0,1-.211-1.16h0.105v-0.42c0.07-.03.141-0.07,0.211-0.1v-0.22h0.105a0.8,0.8,0,0,0-.21-0.52h-0.106v-0.42h-0.105v-0.64h0.105v-0.31h0.106v-0.21a2.116,2.116,0,0,1,.21-0.11v-0.21c0.106-.04.211-0.07,0.317-0.11l0.105-.21c0.281-.03.563-0.07,0.844-0.1-0.007-1.34.629-2.34,2-2.32a0.813,0.813,0,0,0,.422.21v0.1h0.211v0.11c0.07,0.03.14,0.07,0.21,0.1v0.22c0.071,0.03.141,0.07,0.211,0.1v0.21A2.705,2.705,0,0,1,399.581,1458.91Zm10.335,6.64h-4.851a2.09,2.09,0,0,1-.422-1.37h0.105v-0.11l-0.316-.21v-0.21c-0.07-.03-0.141-0.07-0.211-0.1v-0.32h-0.105v-0.95a2.021,2.021,0,0,0,.421-0.74c-0.07-.03-0.14-0.07-0.21-0.1v-0.21h-0.106v-0.21h-0.105v-0.95h0.105v-0.32c0.07-.03.141-0.07,0.211-0.1v-0.22h0.1c0.071-.1.141-0.21,0.211-0.31,0.352-.11.7-0.21,1.055-0.32a2.042,2.042,0,0,1,1.055-2,1.044,1.044,0,0,1,.843-0.21v0.1h0.317v0.11h0.211l0.316,0.42a2.13,2.13,0,0,1,.211.11l0.105,0.42h0.106a5.2,5.2,0,0,0,.211,1.05c0.316,0.11.633,0.21,0.949,0.32v0.1c0.141,0.11.281,0.21,0.422,0.32a0.937,0.937,0,0,0,.211.42v1.16a0.78,0.78,0,0,0-.317.74,2.024,2.024,0,0,1,.211.11,2.563,2.563,0,0,1,.106,1.37h-0.106l-0.105.42-0.317.21v0.95h-0.105v0.31h-0.106C409.986,1465.34,409.951,1465.45,409.916,1465.55Zm-12.655-5.59v1.16h1.265v-1.16h-1.265Zm9.069,0v1.16h1.16v-1.16h-1.16Zm-38.282.53v1.16h1.16v-1.16h-1.16Zm10.651,1.16h1.266v-1.06A0.826,0.826,0,0,0,378.7,1461.65Zm8.437,0H388.4v-1.06A0.826,0.826,0,0,0,387.136,1461.65Zm-17.928,1.05v1.27h1.054A0.825,0.825,0,0,0,369.208,1462.7Zm8.437,0v1.27H378.7A0.825,0.825,0,0,0,377.645,1462.7Zm11.811,1.27v-1.27H388.4a3.726,3.726,0,0,0-.106,1.16A3.663,3.663,0,0,0,389.456,1463.97Zm8.437-1.27v1.27h1.055a3.668,3.668,0,0,0,.105-1.16,0.193,0.193,0,0,1-.105-0.11h-1.055Zm9.6,0a3.729,3.729,0,0,0-.105,1.16A0.822,0.822,0,1,0,407.49,1462.7Zm-35.435,6.23H366.36a3.913,3.913,0,0,0-.316-1.27v-0.42h-0.1c-0.073-.21-0.04-0.36-0.106-0.53h6.75v0.11A7.764,7.764,0,0,0,372.055,1468.93Zm3.375-2.22h6.644a8.054,8.054,0,0,1-.527,2.11,3.294,3.294,0,0,1-1.477.11h-4.113Q375.694,1467.82,375.43,1466.71Zm9.6,0h6.644q-0.264,1.11-.527,2.22h-5.59a0.19,0.19,0,0,0-.1-0.11C385.308,1468.12,385.168,1467.41,385.027,1466.71Zm15.714,2.22h-5.695a3.913,3.913,0,0,0-.316-1.27v-0.42h-0.106c-0.072-.21-0.039-0.36-0.105-0.53h6.749v0.11A7.729,7.729,0,0,0,400.741,1468.93Zm3.375-2.22h6.644a8.052,8.052,0,0,1-.528,2.11,3.289,3.289,0,0,1-1.476.11h-4.113Q404.379,1467.82,404.116,1466.71Z" transform="translate(-365.312 -1417.25)"/>
</svg>
