<svg xmlns="http://www.w3.org/2000/svg" width="58.562" height="53.22" viewBox="0 0 58.562 53.22">
  <defs>
    <style>
      .cls-1 {
        fill: #16c56d;
        fill-rule: evenodd;
      }
    </style>
  </defs>
  <path id="Agro_Drone" data-name="Agro Drone" class="cls-1" d="M398.527,1146.48v5.02H385.862v-5.02h5.616a12.014,12.014,0,0,0,.119-3.35,3.005,3.005,0,0,1-1.672-1.19l-0.12-.72a2.363,2.363,0,0,1-.12-1.19,8.247,8.247,0,0,0,.359-0.84l0.6-.48v-0.12c0.359-.12.717-0.24,1.076-0.35v-0.12a2.581,2.581,0,0,1,2.628,1.31c0.839,0.74.118,2.8-.478,3.23-0.107.07-1.065,0.46-1.075,0.47v3.23a6.758,6.758,0,0,0,1.912.12h3.823Zm-26.167,2.03v4.18a8.942,8.942,0,0,0,2.629.12v1.32h5.018v2.39h-5.018v2.62a6.314,6.314,0,0,1-6.332-6.33h2.509v-4.42h-0.12c-0.508.63-2.638,0.62-3.465,0.24v-0.12h-0.239c-0.04-.08-0.08-0.16-0.119-0.24h-0.239l-0.12-.24h-0.119v-0.71a1.74,1.74,0,0,0,.239-0.24h0.239c0.039-.08.079-0.16,0.119-0.24a6.2,6.2,0,0,1,2.868-.36v0.12a5.2,5.2,0,0,1,.956.24l0.119,0.24h0.239a1.246,1.246,0,0,0,.359.47v-0.23H372l0.239-.36h0.239v-0.12h0.239v-0.12h0.358v-0.12h0.359v-0.12a6.736,6.736,0,0,1,2.27.12v0.12l0.478,0.12v0.12a1.683,1.683,0,0,1,.6.24v0.24h0.12c-0.04.23-.08,0.47-0.12,0.71a4.783,4.783,0,0,1-2.628.72h-0.717A4.024,4.024,0,0,0,372.36,1148.51Zm40.864,4.3h2.509a6.308,6.308,0,0,1-6.333,6.33v-2.62h-5.018v-2.39H409.4v-1.32h2.509c0.345-.93.126-3.1,0.12-4.3l-1.075.24v0.12a6.739,6.739,0,0,1-2.271-.12v-0.12l-0.477-.12v-0.12a1.681,1.681,0,0,1-.6-0.24v-0.24h-0.119c0.039-.24.079-0.47,0.119-0.71a4.7,4.7,0,0,1,2.629-.72h0.717l1.314,0.6a1.2,1.2,0,0,0,.358.47v-0.23h0.12l0.119-.24H413.1l0.12-.24a5.137,5.137,0,0,1,.956-0.24v-0.12a6.057,6.057,0,0,1,2.867.36l0.12,0.24h0.239c0.039,0.08.079,0.16,0.119,0.24h0.12v0.71a1.684,1.684,0,0,0-.239.24h-0.239l-0.12.24a6.192,6.192,0,0,1-2.867.36l-0.956-.48v4.42Zm-31.185.6h20.312v13.98h-4.182c0.04,0.12.08,0.24,0.119,0.36h0.12c0.04,0.12.08,0.24,0.119,0.36l0.239,0.12v0.24a2.43,2.43,0,0,1,.239.11l0.12,0.36h0.119v0.24l0.239,0.12,0.12,0.48,0.239,0.12c0.04,0.16.079,0.32,0.119,0.48h0.12c0.079,0.24.159,0.47,0.239,0.71h0.119v0.36a15.521,15.521,0,0,1,1.314,6.1h-1.194a6.608,6.608,0,0,1-.12-1.92c-0.2-.87-0.4-1.75-0.6-2.62h-0.12v-0.36H399.6l-0.12-.6h-0.119v-0.24h-0.12q-0.179-.54-0.358-1.08a2.43,2.43,0,0,1-.239-0.11q-0.12-.36-0.239-0.72h-0.12c-0.039-.12-0.079-0.24-0.119-0.36l-0.239-.12v-0.24l-0.359-.24v-0.24c-0.119-.08-0.239-0.16-0.358-0.23v-0.24l-0.836-.72v-0.12h-3.585v3.23H391.6v-3.23h-3.584l-0.717.84h-0.12v0.24c-0.119.07-.239,0.15-0.358,0.23v0.24l-0.358.24v0.24l-0.239.12-0.12.36h-0.119l-0.12.48-0.239.12c-0.04.16-.08,0.31-0.119,0.47h-0.12c-0.04.16-.079,0.32-0.119,0.48h-0.12v0.36h-0.119v0.24h-0.12v0.36h-0.119v0.24h-0.12c-0.239.99-.478,1.99-0.717,2.98v1.8a2.554,2.554,0,0,1-1.314.12,11.666,11.666,0,0,1,.478-3.47v-0.6h0.119v-0.36h0.12v-0.35h0.119v-0.36h0.12q0.06-.36.119-0.72h0.12v-0.24h0.119v-0.36h0.12c0.079-.24.159-0.47,0.239-0.71h0.119l0.12-.48,0.239-.12c0.04-.16.079-0.32,0.119-0.48l0.239-.12v-0.24h0.12c0.04-.12.079-0.24,0.119-0.36a2.541,2.541,0,0,1,.239-0.11v-0.24l0.239-.12,0.12-.36H386.1l0.12-.36h-4.182v-13.98Zm9.917,3.11v0.12h-0.717v0.12H390.88v0.11h-0.358v0.12h-0.239l-0.12.24h-0.238q-0.36.42-.717,0.84l-0.239.12q-0.12.36-.239,0.72h-0.12v0.23h-0.119v0.48h-0.12a5.153,5.153,0,0,0,.359,2.63h0.119l0.12,0.36,0.239,0.12v0.24l0.358,0.24v0.12h0.239l0.239,0.36c0.358,0.12.717,0.23,1.075,0.35a2.721,2.721,0,0,0,1.673.24v-0.12h0.478v-0.12h0.359v-0.12c0.159-.04.318-0.08,0.477-0.11v-0.12h0.239c0.08-.12.16-0.24,0.239-0.36h0.239v-0.12l0.359-.24v-0.24l0.239-.12v-0.24l0.239-.12v-0.24h0.119c0.04-.28.08-0.55,0.12-0.83h0.119a5.814,5.814,0,0,0-.119-2.04h-0.12c-0.079-.23-0.159-0.47-0.239-0.71h-0.119v-0.24l-0.717-.6-0.239-.36h-0.239l-0.12-.24A5.849,5.849,0,0,0,391.956,1156.52Zm-1.793,16.72,0.6,0.12v0.12l2.39,0.12a5.524,5.524,0,0,1,1.075-.36,4.241,4.241,0,0,0,.478,1.08h-0.239a1.818,1.818,0,0,1-1.075.36v0.12h-0.956v0.12h-0.478v-0.12H391l-1.315-.48v-0.12A1.8,1.8,0,0,0,390.163,1173.24Zm-0.955,3.35,0.358,0.12v0.12h0.239l0.12,0.24a8.316,8.316,0,0,0,3.345.36v-0.12h0.478v-0.12h0.358v-0.12h0.359c0.04-.08.08-0.16,0.119-0.24l0.478-.12v-0.12c0.161-.05.02,0.04,0.12,0.12a6.911,6.911,0,0,1,.6.72c-0.068.24,0.015,0.1-.119,0.23v0.12h-0.239l-0.12.24h-0.239v0.12H394.7v0.12h-0.239v0.12a7.887,7.887,0,0,1-4.54,0v-0.12h-0.24v-0.12h-0.358v-0.12h-0.239c-0.04-.08-0.08-0.16-0.119-0.24-0.309-.22-0.22.13-0.359-0.35h0.12A2.942,2.942,0,0,1,389.208,1176.59Zm-26.167,3.34a4.828,4.828,0,0,1,4.9,4.19h0.239a4.825,4.825,0,0,1,4.9-4.19,5.1,5.1,0,0,1-2.509,4.43c-0.6.2-1.195,0.39-1.792,0.59a4.982,4.982,0,0,0-.119,2.15l2.509,1.08,2.031-.6v-0.12h0.358v-0.12h0.359v-0.12h0.358v-0.12h0.359v-0.12h0.358v-0.11h0.717v-0.12h0.836v-0.12l1.673-.12a4.583,4.583,0,0,1,1.792-.24c1.5,0.42,3.424.4,4.9,0.83h0.717a6.625,6.625,0,0,0,2.987.36,16.118,16.118,0,0,1,4.541-.59h1.792v0.11h0.239v0.12h0.239v0.12h0.239v0.12H395.9v0.12h0.239v0.12h0.239v0.12h0.239v0.12h0.239v0.12h0.239v0.12h0.238v0.12l2.151-.48v-0.12l1.434-.24c1.179-.39,2.628-0.72,3.824-1.07q3.105,0.42,6.213.83v0.12h0.716v0.12c0.362,0.11.666,0,.956,0.12v-0.12a3.91,3.91,0,0,0,.12-1.79l-1.195-.24a5.076,5.076,0,0,1-.6-0.24,2.308,2.308,0,0,1-.6-0.36c-0.119-.15-0.239-0.31-0.358-0.47a4.667,4.667,0,0,1-1.792-3.71,5.258,5.258,0,0,1,4.54,2.63c0.2,0.6.4,1.2,0.6,1.79v-0.24c0.2-.55.4-1.11,0.6-1.67a5.264,5.264,0,0,1,4.42-2.51,5.031,5.031,0,0,1-4.42,5.02v1.79a6.557,6.557,0,0,0,2.031-.36c1.434-.23,2.868-0.47,4.3-0.71v5.02H361.726v-3.11h2.629a30.966,30.966,0,0,1,3.107-1.08v-2.15a0.193,0.193,0,0,1-.12-0.12A4.832,4.832,0,0,1,363.041,1179.93Zm33.814,1.2a6.963,6.963,0,0,0-1.195.48l-0.717.12v0.12a9.958,9.958,0,0,1-2.27.24c-0.239.04-.478,0.08-0.717,0.11v-0.11l-2.031-.12-2.39-.84a3.118,3.118,0,0,1,.478-1.2,9.052,9.052,0,0,0,4.062.96h1.434v-0.12h0.717v-0.12H394.7v-0.12h0.358v-0.12h0.359v-0.12h0.239v-0.12h0.358v-0.12c0.12-.04.239-0.07,0.359-0.12v0.12A1.672,1.672,0,0,1,396.855,1181.13Zm52.931-9.08" transform="translate(-361.719 -1138.06)"/>
</svg>
