<svg xmlns="http://www.w3.org/2000/svg" width="54.786" height="53.81" viewBox="0 0 54.786 53.81">
  <defs>
    <style>
      .cls-1 {
        fill: #16c56d;
        fill-rule: evenodd;
      }
    </style>
  </defs>
  <path id="Crop_Monitoring" data-name="Crop Monitoring" class="cls-1" d="M986.405,1138.46a2.36,2.36,0,0,1,.994.88c0.368,0.33.736,0.67,1.1,1v0.22c0.111,0.07.221,0.15,0.332,0.22,0.257,0.29.515,0.59,0.773,0.88a2.764,2.764,0,0,1,.994,1.11,1.41,1.41,0,0,0-.552.66c-0.111.07-.221,0.15-0.332,0.22-0.258.3-.515,0.59-0.773,0.88l-1.215,1.11-0.552.66c-0.111.08-.221,0.15-0.331,0.22v0.22c-0.663.63-1.326,1.26-1.989,1.88-0.257.3-.515,0.59-0.773,0.88-0.147.12-.294,0.23-0.441,0.34v0.22h-0.111c-0.147.18-.294,0.37-0.442,0.55H982.87a4.933,4.933,0,0,0-.994-0.99c-0.515-.56-1.03-1.11-1.546-1.66l-0.773-.66v-0.23a2.27,2.27,0,0,1-.221-0.11l-0.552-.66c0.552-.51,1.1-1.03,1.657-1.54v-0.23c0.184-.14.368-0.29,0.552-0.44a1.947,1.947,0,0,1,.883-0.77l1.988,2.1a1.987,1.987,0,0,1,.332.22c0.221,0.04.442,0.07,0.662,0.11v-0.11h0.332a3.454,3.454,0,0,0,.663-0.66v-0.89c-0.81-.84-1.62-1.69-2.43-2.54Zm2.43,17.01a3.126,3.126,0,0,1-1.105,1.21l-0.221.33H987.4v0.23c-0.773.73-1.547,1.47-2.32,2.2v0.12h0.111l1.877,1.98H987.4v-0.11c0.478,0.04.957,0.08,1.436,0.11v0.11h0.22v0.11h0.221c0.037,0.08.074,0.15,0.111,0.23,0.184,0.14.368,0.29,0.552,0.44,0.037,0.14.074,0.29,0.111,0.44h0.11v0.33h0.11a2.29,2.29,0,0,1-1.1,2.54,0.758,0.758,0,0,1-.552.22v0.11a3.292,3.292,0,0,1-2.1-.33c-0.147-.18-0.294-0.37-0.442-0.55h-0.11a3.8,3.8,0,0,1-.221-2.43,4.657,4.657,0,0,1-.884-0.89,4.959,4.959,0,0,1-.994-0.99,0.2,0.2,0,0,0-.11.11c-0.92.88-1.841,1.77-2.761,2.65v0.22a2.27,2.27,0,0,1-.221.11c-0.3.33-.589,0.67-0.884,1h-0.11v-0.22a3.569,3.569,0,0,1-.331-2.1,5.513,5.513,0,0,1,.773-2.32c0.11-.08.221-0.15,0.331-0.22v-0.22a2.27,2.27,0,0,1,.221-0.11l0.994-1.11a6,6,0,0,1-1.878-1.88h-0.11c-0.111-.14-0.221-0.29-0.331-0.44a0.228,0.228,0,0,0-.111.11,5.951,5.951,0,0,0-1.1,1.11,6.089,6.089,0,0,0-1.105,1.1,0.17,0.17,0,0,1-.11-0.11,5.963,5.963,0,0,1-1.105-1.1c-0.7-.67-1.4-1.33-2.1-1.99v-0.22c-0.184-.15-0.369-0.3-0.553-0.44l-2.319-2.43a11.242,11.242,0,0,0,1.657-1.77c0.773-.74,1.546-1.47,2.319-2.21v-0.22h0.111l0.221-.33a8.356,8.356,0,0,0,1.435-1.44H976.8v0.11a7.6,7.6,0,0,1,1.215,1.33l2.54,2.43v0.22c0.773,0.74,1.546,1.47,2.319,2.21v0.11h-0.11a5.449,5.449,0,0,1-.994.99,6.309,6.309,0,0,1-1.105,1.11v0.11h0.111a8.078,8.078,0,0,0,1.657,1.76c0.184,0.22.368,0.45,0.552,0.67v-0.11c0.368-.33.736-0.67,1.1-1,0.037-.07.074-0.14,0.111-0.22h0.221l0.221-.33h0.22v-0.11c0.221-.07.442-0.15,0.663-0.22v-0.11h0.332v-0.11h0.552v-0.11h1.325Zm-12.26-4.86v0.11c-0.184.04-.368,0.07-0.552,0.11v0.11H975.8v0.11c-0.184.15-.368,0.3-0.552,0.44a1,1,0,0,1-.221.44v0.56a0.179,0.179,0,0,0-.111.22,1.91,1.91,0,0,0,1.105,1.54c0.368,0.39,1.239.18,1.767,0.11a1.514,1.514,0,0,1,.442-0.33,2.414,2.414,0,0,0,.552-1.99h-0.111c-0.036-.18-0.073-0.36-0.11-0.55-0.184-.14-0.368-0.29-0.552-0.44v-0.11H977.79v-0.11A2.6,2.6,0,0,0,976.575,1150.61Zm-5.743,3.86a4.411,4.411,0,0,1,.883,1l0.773,0.66c0.479,0.52.958,1.03,1.436,1.55a2.2,2.2,0,0,1,.994,1.32,7.286,7.286,0,0,0-1.325,1.33,8.809,8.809,0,0,0-1.547,1.54,0.17,0.17,0,0,1-.11-0.11c-0.626-.58-1.252-1.17-1.878-1.76h-0.994a1.9,1.9,0,0,0-.662,1.54,2.713,2.713,0,0,1,.221.33c0.589,0.56,1.178,1.11,1.767,1.66v0.11h-0.111c-0.515.55-1.031,1.11-1.546,1.66-0.11.07-.221,0.15-0.331,0.22v0.22c-0.332.29-.663,0.59-0.994,0.88v0.11h-0.221c-1.362-1.43-2.725-2.87-4.087-4.3,0.7-.67,1.4-1.33,2.1-1.99v-0.22h0.11l0.221-.33,2.982-2.88v-0.22h0.111c0.11-.14.221-0.29,0.331-0.44l0.442-.33,0.883-.99A2.72,2.72,0,0,0,970.832,1154.47Zm3.313,24.86h0.221a0.761,0.761,0,0,1,.221-0.22v-0.23h0.11v-0.33h0.111v-0.22h0.11v-0.22c0.074-.04.147-0.07,0.221-0.11v-0.22c0.184-.15.368-0.3,0.552-0.44,0.037-.08.074-0.15,0.111-0.22,0.147-.04.294-0.08,0.442-0.11,0.036-.08.073-0.15,0.11-0.22,0.221-.04.442-0.08,0.663-0.11v-0.12a2.777,2.777,0,0,1,1.325.12h0.442v0.11c0.221,0.07.442,0.14,0.663,0.22l0.22,0.33h0.221v0.11c0.111,0.07.221,0.15,0.332,0.22v0.22c0.11,0.07.221,0.15,0.331,0.22v0.22h0.11a9.794,9.794,0,0,1,.442,1.44h-0.11c-0.242.94-2.81,1.8-4.2,1.32v-0.11c-0.221-.03-0.442-0.07-0.663-0.11v-0.11h-0.221v-0.11h-0.221v-0.11a0.85,0.85,0,0,0-.441-0.11,0.907,0.907,0,0,1-.221.44h-0.111q-0.109.33-.221,0.66h-0.11a1.474,1.474,0,0,0,.11.78v2.54a6.966,6.966,0,0,1,6.738,5.85h3.092c0.147-.51.295-1.03,0.442-1.54h0.11v-0.23h0.111v-0.22h0.11v-0.22a2.163,2.163,0,0,0,.221-0.11v-0.22h0.111c0.036-.11.073-0.22,0.11-0.33,0.074-.04.147-0.07,0.221-0.11v-0.22l0.442-.33,0.662-.78h0.221l0.221-.33h0.221c0.037-.07.074-0.14,0.111-0.22,0.147-.04.294-0.07,0.441-0.11v-0.11H988.5v-0.11c0.4-.15.81-0.29,1.215-0.44a2.923,2.923,0,0,0-.442-1.66,3.579,3.579,0,0,0-.773.44h-0.221v0.11c-0.87.38-3.53,0.56-4.2-.11a0.943,0.943,0,0,1,0-1.21v-0.33H984.2c0.037-.15.073-0.3,0.11-0.44a2.389,2.389,0,0,1,.221-0.11v-0.23l0.442-.33c0.037-.07.074-0.14,0.11-0.22,0.221-.07.442-0.15,0.663-0.22v-0.11h0.221v-0.11h0.552v-0.11a5.459,5.459,0,0,1,1.988.44l0.221,0.33h0.221v0.11l0.552,0.45v-1q-0.332-1.215-.662-2.43a6.894,6.894,0,0,1-3.2-3.42c-0.148-.63-0.295-1.25-0.442-1.88,0.037-.77.074-1.55,0.11-2.32a1.35,1.35,0,0,1,.994-0.33v0.11c0.221,0.04.442,0.07,0.663,0.11v0.11h0.331v0.11h0.221v0.11h0.221c0.037,0.08.074,0.15,0.111,0.22h0.22c0.037,0.08.074,0.15,0.111,0.22h0.221l0.221,0.33h0.221c0.073,0.12.147,0.23,0.22,0.34h0.111v0.22l0.442,0.33v0.22c0.073,0.04.147,0.07,0.221,0.11v0.22h0.11c0.037,0.15.074,0.29,0.111,0.44h0.11a7.771,7.771,0,0,1,.331,3.21,2.345,2.345,0,0,0-.221,1.21h0.111v0.33h0.11v0.44H990.6c0.071,0.21.04,0.37,0.11,0.56,0.222-.07.1,0.01,0.221-0.11a3.2,3.2,0,0,0,.442-1c0.073-.04.147-0.07,0.221-0.11v-0.22c0.073-.04.147-0.07,0.221-0.11l0.552-.66h0.221c0.037-.08.073-0.15,0.11-0.22,0.147-.04.295-0.08,0.442-0.11v-0.11h0.442c1.978-.63,3.555,1.2,3.976,2.54v0.77c-0.11.07-.221,0.15-0.331,0.22v0.11h-0.221c-0.037.07-.074,0.15-0.111,0.22h-0.221v0.11a4.73,4.73,0,0,1-2.761.55v-0.11h-0.552c-0.549-.17-0.974-0.53-1.546-0.66a3.863,3.863,0,0,1-.663.99c0.037,1.15.074,2.29,0.11,3.43a5.447,5.447,0,0,1,3.535,1.1h0.221c0.11,0.15.221,0.3,0.331,0.44h0.221c0.147,0.19.294,0.37,0.442,0.56a2.389,2.389,0,0,1,.221.11v0.22c0.11,0.07.221,0.15,0.331,0.22v0.22c0.11,0.07.221,0.15,0.331,0.22,0.037,0.15.074,0.29,0.111,0.44a4.888,4.888,0,0,1,.883,2.32h3.309a4.109,4.109,0,0,1,.78-1.99c0.03-.14.07-0.29,0.11-0.44h0.11c0.04-.11.07-0.22,0.11-0.33,0.07-.04.15-0.07,0.22-0.11v-0.22c0.18-.15.37-0.3,0.55-0.44,0.26-.3.52-0.59,0.78-0.89h0.22c0.07-.11.14-0.22,0.22-0.33,0.14-.03.29-0.07,0.44-0.11,0.04-.07.07-0.15,0.11-0.22,0.51-.18,1.03-0.37,1.55-0.55-0.04-.37-0.08-0.74-0.11-1.11h-0.12v-0.22h-0.11c-0.03-.11-0.07-0.22-0.11-0.33-0.14.04-.29,0.08-0.44,0.11a1.505,1.505,0,0,1-.11.22c-0.15.04-.29,0.08-0.44,0.11v0.11h-0.33v0.11h-0.33v0.12h-0.44v0.11c-0.85-.04-1.7-0.08-2.54-0.11v-0.12c-0.19-.03-0.37-0.07-0.56-0.11a1.777,1.777,0,0,1-.22-1.1h0.11c0.04-.18.08-0.37,0.11-0.55h0.11v-0.33c0.08-.04.15-0.08,0.22-0.11v-0.22c0.08-.04.15-0.08,0.23-0.12,0.14-.18.29-0.36,0.44-0.55a3.394,3.394,0,0,1,3.53,0c0.04,0.08.07,0.15,0.11,0.22h0.22v0.11c0.19,0.15.37,0.3,0.55,0.45v-0.89h-0.11v-0.55h-0.11v-0.55h-0.11v-0.33h-0.11v-0.45h-0.11c-0.03-.22-0.07-0.44-0.11-0.66h-0.11a3.855,3.855,0,0,0-.77-0.44c-0.04-.07-0.07-0.15-0.11-0.22h-0.22a2.256,2.256,0,0,1-.11-0.22l-0.78-.66v-0.23c-0.11-.07-0.22-0.14-0.33-0.22v-0.22c-0.07-.03-0.14-0.07-0.22-0.11v-0.22c-0.07-.04-0.15-0.07-0.22-0.11v-0.22h-0.11v-0.22h-0.11v-0.33h-0.11v-0.33h-0.11v-0.33h-0.11v-0.45h-0.11v-0.55h-0.11v-2.21a3.988,3.988,0,0,1,.44-0.66h0.55v0.11c0.26,0.04.52,0.07,0.77,0.11v0.11c0.23,0.07.45,0.15,0.67,0.22v0.11c0.14,0.04.29,0.08,0.44,0.11,0.04,0.08.07,0.15,0.11,0.22h0.22c0.44,0.48.88,0.96,1.33,1.44v0.22h0.11v0.22h0.11v0.22h0.11v0.22h0.11v0.22h0.11a8.192,8.192,0,0,1,.22,2.77,2.737,2.737,0,0,0-.22,1.43h0.11v0.33c0.11,0.3.22,0.59,0.33,0.89a2.256,2.256,0,0,1,.22-0.11,1.229,1.229,0,0,1,.22-0.23v-0.33h0.11v-0.22h0.11v-0.22c0.08-.04.15-0.07,0.22-0.11v-0.22h0.11a1.228,1.228,0,0,0,.34-0.55,0.963,0.963,0,0,0,.44-0.22v-0.11h0.22v-0.11c0.15-.04.29-0.08,0.44-0.11v-0.11h0.44v-0.12a4.249,4.249,0,0,1,1.66.12v0.11h0.33c0.04,0.07.07,0.14,0.11,0.22,0.15,0.03.29,0.07,0.44,0.11,0.08,0.11.15,0.22,0.22,0.33a2.753,2.753,0,0,1,1.11,2.65c-0.11.04-.22,0.07-0.33,0.11-0.08.11-.15,0.22-0.22,0.33h-0.23v0.11c-0.22.07-.44,0.15-0.66,0.22v0.11c-0.33.04-.66,0.08-0.99,0.11a2.243,2.243,0,0,1-1.11.11v-0.11h-0.55v-0.11h-0.44v-0.11h-0.22a3.214,3.214,0,0,0-.89-0.44l-0.66.99c0.04,1.15.08,2.29,0.11,3.43a5.634,5.634,0,0,1,4.64,2.1c0.22,0.18.44,0.36,0.66,0.55v0.22c0.08,0.04.15,0.07,0.22,0.11v0.22a5.611,5.611,0,0,1,1.11,2.65,17.8,17.8,0,0,1,2.98.11,1.3,1.3,0,0,1,.22.44h0.11c-0.03.23-.07,0.45-0.11,0.67h-0.11c-0.44.52-1.82,0.33-2.76,0.33H969.175a30.814,30.814,0,0,1-4.749-.11,2.26,2.26,0,0,1-.221-1.11,1.5,1.5,0,0,0,.441-0.33h3.314c0.184-.55.368-1.1,0.552-1.66h0.111v-0.22h0.11v-0.22h0.11c0.037-.14.074-0.29,0.111-0.44,0.074-.04.147-0.07,0.221-0.11,0.037-.11.073-0.22,0.11-0.33l0.442-.33v-0.22c0.184-.15.368-0.3,0.552-0.44,0.037-.08.074-0.15,0.111-0.23h0.221l0.221-.33h0.22c0.037-.07.074-0.14,0.111-0.22h0.221c0.037-.07.073-0.15,0.11-0.22,0.148-.04.295-0.07,0.442-0.11v-0.11c0.147-.04.295-0.07,0.442-0.11v-0.11a2.041,2.041,0,0,0,.773-0.22v-1a2.445,2.445,0,0,1-.442-0.66,5.823,5.823,0,0,1-3.2.89h-0.883c-0.332-.11-0.663-0.23-0.994-0.34a1.506,1.506,0,0,1-.332-0.77h0.111l0.11-.77h0.111c0.036-.15.073-0.3,0.11-0.44h0.11v-0.22c0.111-.08.221-0.15,0.332-0.23v-0.22c0.11-.03.221-0.07,0.331-0.11l0.221-.33a3.588,3.588,0,0,1,2.761-.22v0.11c0.148,0.04.295,0.07,0.442,0.11,0.037,0.08.074,0.15,0.11,0.22h0.221v0.11a2.024,2.024,0,0,0,.774.56,7.966,7.966,0,0,0-.553-2.54q-0.054-.39-0.11-0.78h-0.111c-0.036-.07-0.073-0.15-0.11-0.22h-0.221c-0.037-.07-0.074-0.15-0.11-0.22a6.638,6.638,0,0,1-.884-0.66c-0.331-.3-0.663-0.59-0.994-0.89v-0.22a2.27,2.27,0,0,1-.221-0.11l-0.221-.66H969.4q-0.111-.33-0.221-0.66h-0.111q-0.054-.39-0.11-0.78a6.887,6.887,0,0,1-.111-3.42c0.111-.04.221-0.07,0.332-0.11v-0.11a5.092,5.092,0,0,1,1.767.44v0.11c0.147,0.04.294,0.08,0.442,0.11,0.037,0.08.073,0.15,0.11,0.22h0.221c0.037,0.08.074,0.15,0.111,0.22h0.22l0.332,0.45,0.442,0.33v0.22c0.11,0.07.221,0.14,0.331,0.22v0.22c0.074,0.04.147,0.07,0.221,0.11v0.22h0.11v0.33h0.111v0.22h0.11v0.33h0.111c0.037,0.34.073,0.67,0.11,1h0.111c-0.037.62-.074,1.25-0.111,1.88a1.6,1.6,0,0,0-.221.88h0.111Q973.979,1178.61,974.145,1179.33Zm1.105,7.84v0.11c-0.185.03-.369,0.07-0.553,0.11a1.95,1.95,0,0,0-.221.99l0.442,0.33v0.11h1.105a2.642,2.642,0,0,0,.331-0.33h0.11c0.037-.18.074-0.37,0.111-0.55h-0.111a0.5,0.5,0,0,0-.331-0.55A1.161,1.161,0,0,0,975.25,1187.17Zm16.456,0v0.11h-0.331a1.341,1.341,0,0,0-.331,1.1c0.125,0.13.044,0,.11,0.22a2.868,2.868,0,0,0,1.436.22,1.423,1.423,0,0,0,.442-1.1,0.857,0.857,0,0,0-.774-0.44v-0.11h-0.552Zm16.674,0v0.11h-0.33a1.644,1.644,0,0,0-.33.55,0.739,0.739,0,0,0,.11.77,2.874,2.874,0,0,0,1.44.22,1.412,1.412,0,0,0,.44-1.1,0.7,0.7,0,0,0-.44-0.33A1.174,1.174,0,0,0,1008.38,1187.17Zm-35.119,1.65a5.371,5.371,0,0,0-1.215-.22,1.047,1.047,0,0,0-.552.56c-0.442.47,0.259,0.89,0.442,1.1a6.029,6.029,0,0,0,1.215-.11,1.277,1.277,0,0,0,.221-0.44A0.872,0.872,0,0,0,973.261,1188.82Zm15.353-.22v0.11h-0.332a1.368,1.368,0,0,0-.331,1.11l0.442,0.33v0.11h1.1c0.126-.13,0-0.04.221-0.11a2.26,2.26,0,0,0,.221-1.11c-0.11-.07-0.221-0.14-0.331-0.22A1.386,1.386,0,0,0,988.614,1188.6Zm16.566,0a3.657,3.657,0,0,0-.44.44,0.8,0.8,0,0,0,0,1,0.769,0.769,0,0,1,.33.22,6.486,6.486,0,0,0,1.33-.11,2.368,2.368,0,0,0,.22-1.11c-0.11-.07-0.22-0.14-0.33-0.22A1.544,1.544,0,0,0,1005.18,1188.6Z" transform="translate(-963.094 -1138.47)"/>
</svg>
