<svg xmlns="http://www.w3.org/2000/svg" width="52.032" height="52.1" viewBox="0 0 52.032 52.1">
  <defs>
    <style>
      .cls-1 {
        fill: #16c56d;
        fill-rule: evenodd;
      }
    </style>
  </defs>
  <path id="Farm_With_IOT" data-name="Farm With IOT" class="cls-1" d="M689.225,1433.85H692.2a2.24,2.24,0,0,1,.85-1.06,2.446,2.446,0,0,1,1.593.11l0.106,0.21c0.271,0.19.2-.12,0.319,0.32a1.591,1.591,0,0,1,.318,1.49,1.824,1.824,0,0,1-1.912,1.16v-0.1H693.05v-0.11a1.215,1.215,0,0,1-.85-0.95h-3.081v0.31h-0.106a1.414,1.414,0,0,1-.531.75c-0.071.1-.142,0.21-0.213,0.32-0.65.43-1.9,0.31-2.974,0.31H670.424c-1.049,0-2.236.11-2.869-.31-0.07-.11-0.141-0.22-0.212-0.32-0.142-.11-0.283-0.22-0.425-0.32-0.491-.74-0.319-2.31-0.319-3.51v-9.98c0-1.37-.263-3.49.319-4.36l0.319-.21,0.318-.42c0.835-.56,2.815-0.32,4.143-0.32h15.828v0.1h0.318v0.11h0.213c0.248,0.21.5,0.42,0.744,0.64,0.678,0.96.424,3.18,0.424,4.78v11.36Zm23.795-13.49a1.885,1.885,0,0,1,1.168.75H714.3c0.035,0.1.07,0.21,0.106,0.31h0.85a1.842,1.842,0,0,1,1.168,1.92h-0.106v0.42h-0.106a1.155,1.155,0,0,1-.744.75c-0.4.39-1.795,0.21-2.549,0.21h-6.693a5.131,5.131,0,0,0-.743-0.32c-0.142-.18-0.283-0.36-0.425-0.53h-0.106q-0.159-.48-0.319-0.96h-0.106a2.44,2.44,0,0,1,2.868-2.65,2.818,2.818,0,0,1,1.275-2.45c0.141-.03.283-0.07,0.425-0.1v-0.11H709.3v-0.11c0.425-.03.85-0.07,1.275-0.1v0.1h0.531v0.11h0.212v0.11c0.142,0.03.284,0.07,0.425,0.1,0.071,0.11.142,0.22,0.213,0.32A2.543,2.543,0,0,1,713.02,1420.36Zm-44.19-1.27v13.06H687v-13.06H668.83Zm2.337,7.33v-1.06h1.912c0.248-.57.5-1.14,0.744-1.7h0.106a1.818,1.818,0,0,1,.212-0.54h0.638c0.071,0.11.141,0.22,0.212,0.32H675.1v0.22H675.2v0.21h0.106v0.21h0.106v0.21c0.071,0.04.142,0.07,0.213,0.11v0.21h0.106v0.21h0.106v0.22h0.106v0.21a2.157,2.157,0,0,1,.213.11v0.21h0.106v0.21h0.106v0.21h0.106v0.21a2.157,2.157,0,0,0,.213.11v0.21H676.8v0.22H676.9v0.21h0.106a2.431,2.431,0,0,0,.425.74v-0.1c0.107-.07.213-0.15,0.319-0.22v-0.21c0.142-.11.283-0.21,0.425-0.32v-0.21l0.319-.21v-0.22c0.141-.1.283-0.21,0.425-0.31v-0.22l0.318-.21v-0.21c0.142-.11.284-0.21,0.425-0.32,0.036-.11.071-0.21,0.106-0.32,0.071-.03.142-0.07,0.213-0.1v-0.22c0.141-.1.283-0.21,0.425-0.32a2.556,2.556,0,0,1,.531-0.74v-0.11h0.637l2.443,2.55a2.687,2.687,0,0,1,.956,1.07H684.87l-0.531.63h-0.106v-0.1c-0.708-.68-1.417-1.35-2.125-2.02a1.889,1.889,0,0,0-.849-0.74,1.163,1.163,0,0,1-.213.21v0.21l-0.319.21v0.22c-0.141.1-.283,0.21-0.424,0.31v0.22c-0.071.03-.142,0.07-0.213,0.1-0.035.11-.071,0.21-0.106,0.32-0.142.11-.283,0.21-0.425,0.32v0.21c-0.071.04-.142,0.07-0.213,0.11-0.035.1-.07,0.21-0.106,0.32-0.141.1-.283,0.21-0.425,0.32v0.21l-0.318.21v0.21c-0.142.11-.284,0.22-0.425,0.32v0.21h-0.106l-0.425.54h-0.425c-0.071-.11-0.142-0.22-0.213-0.32H676.8v-0.22c-0.071-.03-0.142-0.07-0.212-0.1v-0.21h-0.107v-0.22h-0.106v-0.21h-0.106v-0.21c-0.071-.04-0.142-0.07-0.213-0.11v-0.21h-0.106v-0.21h-0.106v-0.22h-0.106v-0.21c-0.071-.03-0.142-0.07-0.213-0.1v-0.22h-0.106v-0.21H675.31v-0.21H675.2v-0.21c-0.071-.04-0.142-0.07-0.213-0.11v-0.21c-0.128-.23-0.3-0.49-0.425-0.75-0.121.12-.042,0-0.106,0.22a10.492,10.492,0,0,1-.85,1.27v0.11h-2.443Zm4.462,7.33v1.27h4.461a3.7,3.7,0,0,0,.106-1.17C679.333,1433.54,676.786,1433.74,675.629,1433.75Zm19.864,9.77a1.9,1.9,0,0,1-.956-0.32H694.43v-0.32a0.883,0.883,0,0,0,.213-0.53h0.106v-0.21h0.106v-0.21h0.107v-0.22h0.106v-0.21a2.143,2.143,0,0,0,.212-0.11v-0.21c0.071-.03.142-0.07,0.213-0.1v-0.22c0.071-.03.141-0.07,0.212-0.1v-0.22l0.319-.21v-0.21c0.283-.25.566-0.5,0.85-0.74,0.106-.15.212-0.29,0.318-0.43h0.213c0.071-.1.141-0.21,0.212-0.32h0.213c0.07-.1.141-0.21,0.212-0.32,0.142-.03.283-0.07,0.425-0.1l0.106-.21c0.142-.04.283-0.07,0.425-0.11v-0.11l0.638-.21v-0.11h0.318v-0.1h0.213v-0.11h0.106v0.11a1.894,1.894,0,0,1,.319.95,8.308,8.308,0,0,0-4.143,3.3c-0.071.03-.142,0.07-0.213,0.1v0.22c-0.07.03-.141,0.07-0.212,0.1v0.21A2.772,2.772,0,0,0,695.493,1443.52Zm-19.864-5.74h4.461v2.23h-4.461v-2.23Zm26.237,2.34c0.036,0.35.071,0.71,0.107,1.06a4.086,4.086,0,0,0-2.55,1.6c-0.142.1-.283,0.21-0.425,0.31v0.22c-0.071.03-.142,0.07-0.212,0.1v0.22H698.68v0.21h-0.107v0.32h-0.106v0.21h-0.106a0.952,0.952,0,0,1-.106.53h-0.319v-0.11h-0.531c-0.01,0,.02-0.06-0.213-0.1a5.422,5.422,0,0,1,2.337-3.51c0.071-.1.142-0.21,0.213-0.32l0.637-.21v-0.11A4.2,4.2,0,0,1,701.866,1440.12Zm-33.779,1.06h19.651a1.83,1.83,0,0,0,.319.32v17.53a4.618,4.618,0,0,1-2.018.21H667.98c-0.447-.88-0.212-3.96-0.212-5.31v-12.54A0.749,0.749,0,0,0,668.087,1441.18Zm0.743,1.06v15.94H687v-15.83a6.827,6.827,0,0,0-1.912-.11H668.83Zm32.293,4.15c-0.354-.11-0.709-0.22-1.063-0.32a4.479,4.479,0,0,1,3.081-3.08,0.175,0.175,0,0,0,.106.1,1.452,1.452,0,0,1,.106.85,0.917,0.917,0,0,1-.424.22v0.1h-0.213A3.926,3.926,0,0,0,701.123,1446.39Zm-19.227-1.81h3.293v9.56H681.9v-9.56Zm-11.366,1.7h3.4v7.86h-3.4v-7.86Zm39.834,2.66a1.208,1.208,0,0,0,.319.53h0.106v0.21H710.9c0.036,0.14.071,0.28,0.107,0.43h0.106v0.31h0.106v0.53h0.106v5h0.107v0.21c0.07,0.04.141,0.07,0.212,0.11v0.21c0.071,0.03.142,0.07,0.212,0.1v0.22c0.071,0.03.142,0.07,0.213,0.1v0.22c0.071,0.03.141,0.07,0.212,0.1v0.32h0.107v6.91h0.637v-3.4H714.3v-0.11h0.212v-0.11h0.319v-0.1h0.212v-0.11h0.319a5.625,5.625,0,0,1,1.593-.64v8.93H664.9v-7.86h23.794v-0.11h0.213v-0.11h0.212v-0.1h0.213v-0.11h0.212v-0.1h0.213v-0.11h0.212v-0.11h0.212v-0.1c0.213-.07.425-0.14,0.638-0.22v-0.1c0.991-.11,1.983-0.21,2.974-0.32v-2.02a4.642,4.642,0,0,1-1.806-.53l-0.106-.21a4,4,0,0,1-2.018-3.72,4.53,4.53,0,0,1,4.355,3.72h0.212a4.531,4.531,0,0,1,4.356-3.72,3.985,3.985,0,0,1-2.019,3.72c-0.035.07-.07,0.14-0.106,0.21a4.642,4.642,0,0,1-1.806.53v1.81a3.371,3.371,0,0,1,1.806.53h0.319v0.1h0.212v0.11h0.319v0.11h0.212v0.1h0.319v0.11h0.213v0.11h2.018v0.1h0.319v0.11h0.318v0.1c0.213,0.04.425,0.07,0.638,0.11v0.11h1.274v3.4h0.638v-6.91h0.106v-0.32c0.071-.03.141-0.07,0.212-0.1v-0.22c0.071-.03.142-0.07,0.213-0.1v-0.22c0.071-.03.141-0.07,0.212-0.1v-0.21c0.071-.04.142-0.07,0.213-0.11v-0.21h0.106v-5h0.106v-0.53h0.106v-0.31h0.107c0.035-.15.07-0.29,0.106-0.43h0.106v-0.21h0.106a1.285,1.285,0,0,1,.85-0.85v-0.11h0.212v-0.1a4.035,4.035,0,0,1,2.125-.43v0.11h0.531v0.1H709.2v0.11c0.141,0.03.283,0.07,0.425,0.11v0.1h0.212v0.11A1.239,1.239,0,0,0,710.364,1448.94Zm-34.1.21h3.293v4.99h-3.293v-4.99Zm31.124,1.59a0.832,0.832,0,1,0,1.168.11A3.7,3.7,0,0,0,707.39,1450.74Zm-35.692,5.21h1.062v1.06H671.7v-1.06Zm5.63,0h1.062v1.06h-1.062v-1.06Zm5.736,0h1.063v1.06h-1.063v-1.06Zm21.458,8.5h0.531v-3.4h1.7v3.4h0.637v-7.44h-2.337a1.564,1.564,0,0,1-.531.64v6.8Zm3.93-7.44v7.44h0.638v-3.4h1.7v3.4h0.531v-6.91a1.361,1.361,0,0,1-.425-0.53h-2.443Zm-31.761,6.27v1.06a10.31,10.31,0,0,0,2.868.11,0.191,0.191,0,0,1,.106-0.11v-1.06h-2.974Zm16.465,2.23v1.17h2.337v-1.17h-2.337Zm10.3,0v1.17h1.168v-1.17H703.46Zm3.824,1.17h1.274v-1.07A0.832,0.832,0,0,0,707.284,1466.68Zm4.036-1.17v1.17h1.169v-1.17H711.32Zm-44.189.42v0.22h2.337v-0.22h-2.337Z" transform="translate(-664.906 -1416.81)"/>
</svg>
