<svg xmlns="http://www.w3.org/2000/svg" width="50.53" height="53.09" viewBox="0 0 50.53 53.09">
  <defs>
    <style>
      .cls-1 {
        fill: #16c56d;
        fill-rule: evenodd;
      }
    </style>
  </defs>
  <path id="Irrigation_Automation" data-name="Irrigation Automation" class="cls-1" d="M1265.96,1138.48h50.55v5.2h-3.32a16.644,16.644,0,0,0-.11-2.88c-0.11-.04-0.22-0.07-0.33-0.11a4,4,0,0,0-1.77-.11h-4.09c-0.71,0-1.38-.1-1.66.33-0.42.42-.23,1.97-0.22,2.77h-9.62a8.876,8.876,0,0,0-.22-2.88,7.39,7.39,0,0,0-2.55-.22,32.943,32.943,0,0,0-5.2.11c-0.03.11-.07,0.22-0.11,0.33a9.392,9.392,0,0,0-.11,2.66h-9.73a8.968,8.968,0,0,0-.11-2.55c-0.2-.74-1.09-0.55-1.99-0.55h-5.65c-0.11.15-.22,0.29-0.33,0.44h-0.11v2.66h-3.32v-5.2Zm4.76,3.54h5.2a9.126,9.126,0,0,1,.11,2.65,5.384,5.384,0,0,0-.22,1,1.505,1.505,0,0,0-.22.11c-0.04.15-.08,0.29-0.11,0.44-0.08.04-.15,0.07-0.22,0.11-0.12.15-.23,0.3-0.34,0.44a5.743,5.743,0,0,1-.88.34v0.11a3.014,3.014,0,0,1-1.66-.22,1.494,1.494,0,0,1-.77-0.56l-0.45-.33C1270.57,1145.22,1270.7,1143.49,1270.72,1142.02Zm17.92,0h5.2v3.21h-0.11v0.33h-0.11v0.22h-0.11V1146c-0.11.07-.23,0.15-0.34,0.22-0.03.11-.07,0.22-0.11,0.33h-0.22c-0.07.11-.15,0.22-0.22,0.33h-0.22V1147h-0.22v0.11a4.286,4.286,0,0,1-1.55.11v-0.11h-0.33V1147h-0.22v-0.12h-0.22v-0.11a0.952,0.952,0,0,0-.45-0.22,0.875,0.875,0,0,0-.22-0.44h-0.11v-0.22c-0.07-.04-0.15-0.07-0.22-0.11v-0.33h-0.11v-0.34h-0.11v-3.09Zm17.92,0h5.2c0.05,2.52.21,3.93-1.44,4.86V1147h-0.22v0.11a4.3,4.3,0,0,1-1.55.11v-0.11h-0.33V1147H1308c-0.3-.23-0.59-0.45-0.89-0.67v-0.22c-0.07-.04-0.15-0.07-0.22-0.11-0.04-.15-0.07-0.3-0.11-0.44h-0.11v-0.33h-0.11v-3.21Zm-33.96,8.07h1.55v1.66h-1.55v-1.66Zm17.81,0h1.66v1.55a5.005,5.005,0,0,1-1.55.11A5.4,5.4,0,0,1,1290.41,1150.09Zm17.92,0h1.66v1.55a5.005,5.005,0,0,1-1.55.11A5.4,5.4,0,0,1,1308.33,1150.09Zm-35.73,3.54h1.55v1.66h-1.55v-1.66Zm17.81,0h1.66v1.55a5.005,5.005,0,0,1-1.55.11A5.4,5.4,0,0,1,1290.41,1153.63Zm17.92,0h1.66v1.55a5.005,5.005,0,0,1-1.55.11A5.4,5.4,0,0,1,1308.33,1153.63Zm-35.73,3.54h1.55v1.66h-1.55v-1.66Zm17.81,0h1.66v1.55a5.005,5.005,0,0,1-1.55.11A5.4,5.4,0,0,1,1290.41,1157.17Zm17.92,0h1.66v1.55a5.005,5.005,0,0,1-1.55.11A5.4,5.4,0,0,1,1308.33,1157.17Zm-35.73,3.54h1.55v1.66h-1.55v-1.66Zm17.81,0h1.66v1.55a5.005,5.005,0,0,1-1.55.11A5.4,5.4,0,0,1,1290.41,1160.71Zm17.92,0h1.66v1.55a5.005,5.005,0,0,1-1.55.11A5.4,5.4,0,0,1,1308.33,1160.71Zm-35.73,3.54h1.55v1.66h-1.55v-1.66Zm35.73,0h1.66v1.55a5.332,5.332,0,0,1-1.55.11A5.427,5.427,0,0,1,1308.33,1164.25Zm-40.6,15.04a5.747,5.747,0,0,1,2.99.89c0.22,0.07.44,0.15,0.66,0.22a2.256,2.256,0,0,1,.11.22h0.23c0.18,0.22.36,0.44,0.55,0.66,0.29,0.26.59,0.52,0.88,0.78a7.663,7.663,0,0,1,1.55,4.64,7.28,7.28,0,0,1-3.21-.88v-0.11c-0.14-.04-0.29-0.08-0.44-0.11-0.11-.15-0.22-0.3-0.33-0.44h-0.22c-0.15-.19-0.3-0.37-0.44-0.56l-0.67-.55A8.317,8.317,0,0,1,1267.73,1179.29Zm14.6,0a7.014,7.014,0,0,1-.66,2.77v0.33h-0.11v0.22h-0.11v0.22a2.256,2.256,0,0,1-.22.11c-0.04.15-.08,0.3-0.11,0.45a1.505,1.505,0,0,0-.22.11v0.22l-0.45.33v0.22c-0.18.15-.36,0.3-0.55,0.44-0.04.08-.07,0.15-0.11,0.22h-0.22c-0.15.19-.3,0.37-0.44,0.56h-0.22c-0.04.07-.08,0.14-0.12,0.22-0.14.04-.29,0.07-0.44,0.11v0.11h-0.22v0.11h-0.22v0.11h-0.33a5.784,5.784,0,0,1-2.32.55,6.565,6.565,0,0,1,.44-2.1v-0.33h0.11v-0.33h0.11c0.07-.22.15-0.44,0.22-0.66h0.11v-0.23h0.11c0.04-.14.08-0.29,0.11-0.44,0.08-.04.15-0.07,0.22-0.11,0.04-.11.08-0.22,0.11-0.33l0.45-.33v-0.22c0.18-.15.37-0.3,0.55-0.45,0.04-.07.07-0.14,0.11-0.22h0.22c0.08-.11.15-0.22,0.22-0.33h0.22a2.256,2.256,0,0,0,.11-0.22h0.23a2.256,2.256,0,0,1,.11-0.22h0.22A6.294,6.294,0,0,1,1282.33,1179.29Zm1.55,0a6.008,6.008,0,0,1,3.65,1.22h0.22c0.08,0.11.15,0.22,0.23,0.33h0.22c0.11,0.19.22,0.37,0.33,0.55,0.33,0.3.66,0.59,0.99,0.89v0.22a7.416,7.416,0,0,1,1.44,4.2h0.44v2.11a0.187,0.187,0,0,1,.12.11h1.65a1.479,1.479,0,0,0,.56.55v0.11h-0.11a0.889,0.889,0,0,1-.89.55c0.04,0.48.08,0.96,0.11,1.44h-3.09v-1.44h-0.78a2.7,2.7,0,0,0-.55-0.77c0.11-.04.22-0.07,0.33-0.11,0.07-.11.15-0.22,0.22-0.33h1.88v-0.11a4.614,4.614,0,0,0,.11-2,0.2,0.2,0,0,1-.11-0.11,7.524,7.524,0,0,1-3.54-.99,1.505,1.505,0,0,0-.11-0.22h-0.22v-0.11a2.545,2.545,0,0,0-.88-0.67v-0.22l-0.78-.66v-0.22a2.256,2.256,0,0,0-.22-0.11v-0.22A6.6,6.6,0,0,1,1283.88,1179.29Zm14.6,0a6.938,6.938,0,0,1-1.55,4.43v0.22c-0.11.07-.22,0.15-0.33,0.22-0.29.33-.59,0.66-0.88,1h-0.22v0.22c-0.11.03-.22,0.07-0.33,0.11v0.11h-0.23a2.256,2.256,0,0,1-.11.22c-0.22.07-.44,0.15-0.66,0.22v0.11h-0.33v0.11h-0.22v0.11a6.823,6.823,0,0,1-2.22.33,8.384,8.384,0,0,1,1.66-4.75c0.26-.22.52-0.44,0.78-0.67,0.15-.18.29-0.36,0.44-0.55h0.22a2.256,2.256,0,0,0,.11-0.22c0.11-.04.22-0.07,0.33-0.11v-0.11c0.15-.04.3-0.08,0.45-0.11A5.3,5.3,0,0,1,1298.48,1179.29Zm0.89,0a5.71,5.71,0,0,1,2.98.89c0.23,0.07.45,0.15,0.67,0.22,0.04,0.07.07,0.15,0.11,0.22h0.22c0.18,0.22.37,0.44,0.55,0.66,0.3,0.26.59,0.52,0.89,0.78a7.794,7.794,0,0,1,1.55,4.64,7.242,7.242,0,0,1-3.21-.88v-0.11c-0.15-.04-0.3-0.08-0.44-0.11-0.11-.15-0.22-0.3-0.34-0.44h-0.22c-0.14-.19-0.29-0.37-0.44-0.56-0.22-.18-0.44-0.37-0.66-0.55A8.317,8.317,0,0,1,1299.37,1179.29Zm14.6,0a7.19,7.19,0,0,1-.66,2.77v0.33h-0.12v0.22h-0.11v0.22a1.505,1.505,0,0,1-.22.11c-0.03.15-.07,0.3-0.11,0.45a2.256,2.256,0,0,0-.22.11v0.22c-0.15.11-.29,0.22-0.44,0.33v0.22c-0.19.15-.37,0.3-0.55,0.44-0.04.08-.08,0.15-0.12,0.22h-0.22c-0.14.19-.29,0.37-0.44,0.56h-0.22c-0.04.07-.07,0.14-0.11,0.22-0.15.04-.3,0.07-0.44,0.11v0.11h-0.22v0.11h-0.23v0.11h-0.33a5.742,5.742,0,0,1-2.32.55,6.847,6.847,0,0,1,.44-2.1v-0.33h0.11v-0.33h0.11c0.08-.22.15-0.44,0.22-0.66h0.12v-0.23H1308c0.03-.14.07-0.29,0.11-0.44,0.07-.04.14-0.07,0.22-0.11,0.03-.11.07-0.22,0.11-0.33,0.15-.11.29-0.22,0.44-0.33v-0.22c0.19-.15.37-0.3,0.55-0.45a1.505,1.505,0,0,0,.11-0.22h0.23c0.07-.11.14-0.22,0.22-0.33h0.22c0.04-.07.07-0.15,0.11-0.22h0.22c0.04-.07.07-0.15,0.11-0.22h0.22A6.334,6.334,0,0,1,1313.97,1179.29Zm-39.16,7.41h0.45v2.11h1.54a1.358,1.358,0,0,0,.67.55v0.22c-0.43.27-.19,0.51-0.89,0.55v1.44h-2.98a8.579,8.579,0,0,0,0-1.44h-0.67a2.75,2.75,0,0,1-.55-0.77c0.11-.07.22-0.15,0.33-0.22v-0.11h0.22c0.04-.08.08-0.15,0.11-0.22h1.44v0.11h0.33v-2.22Zm31.64,0h0.44v2.11h1.55a1.333,1.333,0,0,0,.66.55v0.22c-0.43.27-.19,0.51-0.88,0.55v1.44h-2.99a7.63,7.63,0,0,0,0-1.44h-0.66a2.59,2.59,0,0,1-.56-0.77c0.11-.07.23-0.15,0.34-0.22v-0.11h0.22a1.505,1.505,0,0,1,.11-0.22h1.44v0.11h0.33v-2.22Z" transform="translate(-1265.97 -1138.47)"/>
</svg>
