<svg xmlns="http://www.w3.org/2000/svg" width="49.938" height="50.15" viewBox="0 0 49.938 50.15">
  <defs>
    <style>
      .cls-1 {
        fill: #fff;
        fill-rule: evenodd;
      }
    </style>
  </defs>
  <path id="Improve_Yield_by_21_" data-name="Improve Yield by 21%" class="cls-1" d="M953.4,4154.2a6.314,6.314,0,0,1,6.338,6.23h0.306a6.38,6.38,0,0,1,6.338-6.23v1.22c-0.2.62-.409,1.23-0.614,1.84a1.917,1.917,0,0,1-.2.1c-0.034.14-.068,0.28-0.1,0.41-0.068.04-.137,0.07-0.205,0.11v0.2c-0.136.1-.272,0.2-0.409,0.31v0.2c-0.068.03-.136,0.07-0.2,0.1-0.1.14-.2,0.27-0.307,0.41h-0.2c-0.1.14-.205,0.27-0.307,0.41h-0.2l-0.1.21c-0.205.06-.409,0.13-0.614,0.2v0.1a5.629,5.629,0,0,1-2.453.62,21.086,21.086,0,0,1-.1,3.47h0.1v-0.1c0.75,0.07,1.5.13,2.249,0.2v0.1h0.511c2.2,0.72,4.037,1.32,5.213,3.07a1.917,1.917,0,0,0,.2.1c0.034,0.14.068,0.28,0.1,0.41h0.1v0.21h0.1c0.128,0.29.395,2.13,0.1,2.45a0.8,0.8,0,0,1-.2.41h-0.1v0.2c-0.068.04-.136,0.07-0.2,0.11l-0.409.51h-0.2l-0.2.3h-0.2l-0.1.21h-0.205c-0.034.07-.068,0.13-0.1,0.2h-0.2v0.1h-0.205v0.11h-0.2v0.1h-0.205v0.1h-0.2v0.1h-0.205v0.1h-0.306a12.9,12.9,0,0,1-5.417,1.03H958.1v-0.11H957.28v-0.1h-0.614v-0.1h-0.511v-0.1h-0.409v-0.1H955.44v-0.11c-0.239-.03-0.477-0.06-0.716-0.1v-0.1h-0.2v-0.1c-0.2-.04-0.409-0.07-0.613-0.11V4173c-0.205-.07-0.409-0.13-0.614-0.2v-0.1c-0.136-.04-0.272-0.07-0.409-0.11-0.034-.06-0.068-0.13-0.1-0.2-0.136-.03-0.272-0.07-0.409-0.1-0.068-.11-0.136-0.21-0.2-0.31h-0.2l-0.409-.51h-0.205c-0.034-.1-0.068-0.2-0.1-0.31l-0.409-.3v-0.21c-0.068-.03-0.136-0.07-0.2-0.1v-1.64h0.1c0.034-.23.068-0.47,0.1-0.71h0.1c0.069-.21.137-0.41,0.205-0.61h0.1v-0.21c0.1-.07.2-0.13,0.307-0.2v-0.21c0.068-.03.136-0.07,0.2-0.1l0.409-.51h0.2c0.1-.14.2-0.27,0.307-0.41h0.2c0.035-.07.069-0.14,0.1-0.2,0.136-.04.272-0.07,0.408-0.11,0.035-.06.069-0.13,0.1-0.2,0.749-.31,1.5-0.61,2.248-0.92l1.329-.21a4.944,4.944,0,0,1,2.351-.2v-2.35a2.171,2.171,0,0,1-.1-1.12,5.013,5.013,0,0,1-2.453-.72c-0.136-.03-0.273-0.07-0.409-0.1l-0.1-.21A5.951,5.951,0,0,1,953.4,4154.2Zm-9.812,6.03-1.124-.21v-0.1a5.36,5.36,0,0,0,.306-1.84h-0.1a2.179,2.179,0,0,1-.715.51l-0.1.21h-0.2c-0.034.06-.068,0.13-0.1,0.2h-0.205c-0.068.1-.136,0.2-0.2,0.31h-0.205v0.1c-0.1.03-.2,0.07-0.306,0.1l-0.1.21h-0.205l-0.2.3h-0.2v0.1c-0.1.04-.2,0.07-0.306,0.11-0.034.06-.068,0.13-0.1,0.2H939.29c-0.068.1-.136,0.21-0.2,0.31h-0.205v0.1c-0.1.03-.2,0.07-0.306,0.1l-0.1.21h-0.2l-0.205.3h-0.2l-0.1.21h-0.2c-0.034.07-.068,0.13-0.1,0.2h-0.2c-0.068.1-.137,0.21-0.2,0.31h-0.2v0.1c-0.1.03-.2,0.07-0.307,0.1l-0.1.21h-0.2l-0.205.3h-0.2v0.11c-0.1.03-.205,0.06-0.307,0.1-0.034.07-.068,0.13-0.1,0.2h-0.2c-0.069.1-.137,0.21-0.205,0.31h-0.2v0.1c-0.1.04-.205,0.07-0.307,0.1l-0.1.21h-0.205l-0.2.3h-0.2a2.2,2.2,0,0,1-1.329.72,5.458,5.458,0,0,0-.511-0.41c-0.068-.1-0.137-0.2-0.205-0.31h-0.2c-0.273-.3-0.545-0.61-0.818-0.92h-0.2c-0.273-.3-0.545-0.61-0.818-0.92h-0.2c-0.273-.3-0.546-0.61-0.818-0.92h-0.2c-0.034-.06-0.068-0.13-0.1-0.2a3.639,3.639,0,0,0-1.328-1.02c-0.1.13-.2,0.27-0.307,0.41h-0.2c-0.1.13-.2,0.27-0.306,0.41H926l-0.2.3h-0.205c-0.1.14-.2,0.28-0.306,0.41h-0.205c-0.1.14-.2,0.27-0.306,0.41h-0.2c-0.034.07-.068,0.14-0.1,0.2-0.1.04-.2,0.07-0.306,0.11-0.1.13-.205,0.27-0.307,0.41h-0.205c-0.1.13-.2,0.27-0.306,0.4H923.14c-0.068.11-.136,0.21-0.2,0.31h-0.205c-0.1.14-.2,0.27-0.306,0.41h-0.2c-0.1.14-.205,0.27-0.307,0.41h-0.205c-0.068.1-.136,0.2-0.2,0.31h-0.2c-0.1.13-.205,0.27-0.307,0.4h-0.205c-0.1.14-.2,0.28-0.306,0.41h-0.2c-0.068.11-.136,0.21-0.2,0.31h-0.307a3.407,3.407,0,0,0-.511-0.82,1.182,1.182,0,0,0,.205-0.2h0.2c0.068-.1.136-0.21,0.205-0.31h0.2c0.1-.14.2-0.27,0.307-0.41h0.2c0.1-.13.2-0.27,0.307-0.41h0.2c0.034-.06.068-0.13,0.1-0.2,0.1-.04.205-0.07,0.307-0.1,0.1-.14.2-0.28,0.307-0.41h0.2c0.1-.14.205-0.27,0.307-0.41h0.2l0.1-.21c0.1-.03.2-0.06,0.307-0.1,0.1-.13.2-0.27,0.307-0.41h0.2c0.1-.13.2-0.27,0.307-0.41h0.2l0.205-.3h0.2c0.1-.14.2-0.27,0.307-0.41h0.2c0.1-.14.2-0.27,0.307-0.41h0.2c0.068-.1.136-0.2,0.2-0.31H925.8l0.2-.3c0.1-.04.205-0.07,0.307-0.1l0.1-.21h0.1c0.034-.07.069-0.14,0.1-0.2h0.2l0.1-.21h0.511c0.239,0.21.477,0.41,0.716,0.62,0.1,0.13.2,0.27,0.306,0.4h0.2c0.272,0.31.545,0.62,0.818,0.92h0.2c0.273,0.31.545,0.62,0.818,0.92h0.2v0.11l0.409,0.3,0.409,0.51h0.2v0.11l0.409,0.3,0.409,0.51h0.307a2.179,2.179,0,0,1,.715-0.51c0.034-.07.068-0.13,0.1-0.2h0.205l0.1-.21h0.2l0.205-.3h0.2v-0.11c0.1-.03.205-0.06,0.307-0.1,0.034-.07.068-0.13,0.1-0.2H935.2c0.068-.1.136-0.21,0.2-0.31h0.2v-0.1c0.1-.03.205-0.07,0.307-0.1l0.1-.21h0.205l0.2-.3h0.205v-0.11c0.1-.03.2-0.06,0.306-0.1,0.034-.07.068-0.14,0.1-0.2h0.2c0.068-.1.136-0.21,0.2-0.31h0.2c0.034-.07.068-0.14,0.1-0.2h0.2l0.1-.21h0.205l0.2-.3h0.205v-0.11c0.1-.03.2-0.06,0.306-0.1,0.034-.07.069-0.14,0.1-0.2h0.2c0.068-.11.136-0.21,0.205-0.31h0.2c0.034-.07.068-0.14,0.1-0.2h0.2l0.1-.21h0.2c0.068-.1.137-0.2,0.205-0.31h0.2v-0.1c0.1-.03.2-0.07,0.307-0.1,0.034-.07.068-0.14,0.1-0.2h0.2l0.1-.21c0.1-.03.2-0.07,0.306-0.1v-0.1c0.1-.04.2-0.07,0.307-0.11v-0.2c-0.613-.1-1.227-0.2-1.84-0.31,0.034-.3.068-0.61,0.1-0.92a1.186,1.186,0,0,1,.409-0.1c1.056,0.21,2.113.41,3.169,0.61,0.034,0.11.068,0.21,0.1,0.31a1.963,1.963,0,0,1,0,1.02A10.229,10.229,0,0,0,943.583,4160.23Zm-3.271,1.02h1.022v11.45h-1.022v-11.45Zm-13.594,1.12h1.022v10.33h-1.022v-10.33Zm10.834,1.13h1.023v9.2h-1.023v-9.2Zm-13.594,1.02h1.022v8.18h-1.022v-8.18Zm5.417,0H930.4v8.18h-1.022v-8.18Zm5.52,1.12h1.022v7.06H934.9v-7.06Zm-13.7.51h1.023v6.55H921.2v-6.55Zm10.937,0h1.022v6.55h-1.022v-6.55Zm18.5,6.14c0.1,0.07.2,0.13,0.306,0.2v0.1h0.205c0.068,0.11.136,0.21,0.2,0.31h0.205c0.068,0.1.136,0.2,0.2,0.31,0.136,0.03.273,0.06,0.409,0.1,0.034,0.07.068,0.14,0.1,0.2,0.136,0.04.273,0.07,0.409,0.11v0.1h0.2v0.1c0.205,0.07.409,0.14,0.614,0.2v0.11H953.8v0.1h0.205v0.1h0.306v0.1h0.307v0.11h0.307v0.1h0.306v0.1c0.443,0.07.886,0.14,1.329,0.2a15.218,15.218,0,0,0,7.564-.2h0.409v-0.1h0.306v-0.1h0.409v-0.11h0.205v-0.1c0.2-.03.408-0.07,0.613-0.1v-0.1c0.136-.04.273-0.07,0.409-0.11v-0.1h0.2v-0.1h0.307c0.034-.07.068-0.14,0.1-0.2l0.613-.21v-0.1c0.1-.04.2-0.07,0.307-0.1l0.1-.21h0.2l0.2-.3h0.2v-0.11l0.409-.3v5.11c-0.1.07-.2,0.13-0.306,0.2v0.21c-0.239.2-.477,0.41-0.716,0.61-0.034.07-.068,0.14-0.1,0.2h-0.2c-0.069.11-.137,0.21-0.205,0.31h-0.2l-0.1.21c-0.137.03-.273,0.06-0.409,0.1-0.034.07-.069,0.13-0.1,0.2-0.306.1-.613,0.21-0.92,0.31v0.1h-0.2v0.1c-0.17.04-.341,0.07-0.511,0.11v0.1c-0.238.03-.477,0.07-0.715,0.1v0.1h-0.307v0.1h-0.409v0.11h-0.511a14.949,14.949,0,0,1-8.484-.51c-0.2-.04-0.409-0.07-0.613-0.11v-0.1c-0.2-.07-0.409-0.14-0.613-0.2v-0.11h-0.205v-0.1c-0.2-.07-0.409-0.13-0.613-0.2l-1.533-1.23v-0.2c-0.068-.04-0.136-0.07-0.205-0.11a4.154,4.154,0,0,0-.306-0.4v-5.01Zm-12.368,3.68a14.417,14.417,0,0,1,13.288,7.15c0.034,0.14.068,0.27,0.1,0.41h0.1v0.2h0.1c0.068,0.21.137,0.41,0.205,0.62h0.1v0.31h0.1v0.2h0.1v0.31a11.518,11.518,0,0,1,.92,4.8v1.84h-0.1v0.72h-0.1v0.51h-0.1v0.51h-0.1c-0.034.24-.068,0.47-0.1,0.71h-0.1v0.31h-0.1v0.31h-0.1v0.3h-0.1v0.21h-0.1v0.3h-0.1c-0.068.21-.136,0.41-0.2,0.62h-0.1v0.2h-0.1v0.21h-0.1c-0.068.2-.136,0.4-0.205,0.61-0.068.03-.136,0.07-0.2,0.1-0.034.14-.068,0.27-0.1,0.41-0.068.03-.136,0.07-0.205,0.1v0.21c-0.068.03-.136,0.07-0.2,0.1-0.034.1-.068,0.2-0.1,0.31-0.1.06-.2,0.13-0.307,0.2v0.2c-0.136.11-.272,0.21-0.409,0.31v0.21l-0.92.81-0.409.51h-0.2c-0.136.18-.272,0.35-0.409,0.52-0.1.03-.2,0.06-0.306,0.1-0.035.07-.069,0.13-0.1,0.2h-0.2l-0.1.21c-0.1.03-.205,0.06-0.307,0.1v0.1h-0.2l-0.1.21c-0.136.03-.272,0.06-0.408,0.1-0.034.07-.069,0.13-0.1,0.2-0.136.04-.272,0.07-0.409,0.1v0.11h-0.2v0.1c-0.2.07-.409,0.14-0.613,0.2v0.11h-0.307v0.1h-0.2v0.1c-0.2.03-.409,0.07-0.614,0.1v0.1h-0.306v0.11h-0.307v0.1h-0.306v0.1c-0.307.04-.614,0.07-0.92,0.1v0.11h-0.614v0.1h-0.817v0.1a10.514,10.514,0,0,1-2.658-.1c-0.477-.04-0.954-0.07-1.431-0.1v-0.11c-0.306-.03-0.613-0.06-0.92-0.1v-0.1H935.2v-0.1H934.9v-0.11h-0.307v-0.1c-0.2-.03-0.409-0.07-0.613-0.1v-0.1h-0.2v-0.1h-0.307v-0.11c-0.205-.06-0.409-0.13-0.613-0.2v-0.1h-0.205v-0.11c-0.136-.03-0.272-0.06-0.409-0.1-0.034-.07-0.068-0.13-0.1-0.2-0.136-.04-0.272-0.07-0.409-0.1l-0.1-.21h-0.2v-0.1c-0.1-.04-0.2-0.07-0.307-0.1l-0.1-.21h-0.2c-0.034-.07-0.068-0.13-0.1-0.2-0.1-.04-0.2-0.07-0.307-0.1-0.136-.17-0.272-0.34-0.408-0.52h-0.205c-0.272-.3-0.545-0.61-0.817-0.92-0.171-.13-0.341-0.27-0.512-0.4v-0.21c-0.136-.1-0.272-0.2-0.408-0.31v-0.2c-0.1-.07-0.205-0.14-0.307-0.2-0.034-.11-0.068-0.21-0.1-0.31-0.068-.03-0.137-0.07-0.205-0.1v-0.21c-0.068-.03-0.136-0.07-0.2-0.1-0.034-.14-0.068-0.27-0.1-0.41-0.068-.03-0.137-0.07-0.2-0.1-0.068-.21-0.136-0.41-0.2-0.61h-0.1v-0.21h-0.1v-0.2h-0.1c-0.068-.21-0.136-0.41-0.2-0.62h-0.1v-0.3H926v-0.21h-0.1v-0.3h-0.1v-0.31h-0.1v-0.31h-0.1v-0.41h-0.1v-0.3h-0.1l-0.1-1.02a10.1,10.1,0,0,1-.1-3.99v-0.72h0.1v-0.61h0.1v-0.41h0.1v-0.41h0.1v-0.41h0.1c0.034-.2.068-0.41,0.1-0.61h0.1v-0.2H926v-0.31h0.1v-0.2h0.1v-0.31h0.1c0.068-.21.136-0.41,0.2-0.62h0.1v-0.2h0.1c0.034-.14.068-0.27,0.1-0.41,0.068-.03.136-0.07,0.2-0.1,0.034-.14.068-0.27,0.1-0.41h0.1c0.034-.1.068-0.2,0.1-0.31a2.029,2.029,0,0,0,.2-0.1V4182l0.306-.21v-0.2a1.931,1.931,0,0,1,.205-0.1c0.034-.11.068-0.21,0.1-0.31l0.613-.51v-0.21a2.029,2.029,0,0,0,.205-0.1c0.17-.2.34-0.41,0.511-0.61h0.2c0.17-.21.341-0.41,0.511-0.61,0.1-.04.2-0.07,0.307-0.11l0.2-.3h0.205l0.1-.21h0.2c0.034-.07.068-0.13,0.1-0.2h0.205l0.1-.21c0.1-.03.2-0.06,0.307-0.1v-0.1l0.613-.21v-0.1h0.2v-0.1h0.2v-0.1l0.613-.21v-0.1h0.307v-0.1h0.2v-0.1l2.556-.72A7.1,7.1,0,0,0,938.268,4175.97Zm0.307,4.9H939.8v-3.78a3.469,3.469,0,0,0-1.124-.1A17.345,17.345,0,0,0,938.575,4180.87Zm-5.52-2.35c-0.242.27-.687,0.33-0.92,0.62a0.853,0.853,0,0,1,.205.4c0.068,0.04.136,0.07,0.2,0.11,0.034,0.13.068,0.27,0.1,0.41a1.931,1.931,0,0,1,.205.1l0.1,0.3c0.205-.05.088,0.02,0.2-0.1a1.249,1.249,0,0,0,.818-0.51C933.543,4179.56,933.48,4178.8,933.055,4178.52Zm12.163,0a6.492,6.492,0,0,0-.715,1.43c0.189,0.23.526,0.29,0.715,0.51,0.206-.05.089,0.02,0.205-0.1a4.529,4.529,0,0,0,.818-1.33Zm5.418,0.51c0.136,0.11.272,0.21,0.409,0.31v0.1h0.2c0.068,0.1.136,0.21,0.2,0.31h0.205c0.034,0.07.068,0.14,0.1,0.2,0.1,0.04.205,0.07,0.307,0.11v0.1c0.2,0.07.409,0.13,0.613,0.2l0.1,0.21h0.2v0.1h0.306v0.1c0.137,0.03.273,0.07,0.409,0.1v0.11c0.171,0.03.341,0.06,0.511,0.1v0.1c0.341,0.07.682,0.14,1.022,0.2a15.182,15.182,0,0,0,8.075.31c0.443-.07.886-0.14,1.329-0.2v-0.11h0.307v-0.1h0.306v-0.1h0.307v-0.1h0.306v-0.1h0.205v-0.11h0.307v-0.1c0.2-.07.408-0.14,0.613-0.2v-0.11c0.136-.03.272-0.06,0.409-0.1,0.034-.07.068-0.13,0.1-0.2,0.136-.04.272-0.07,0.409-0.1,0.409-.35.818-0.69,1.226-1.03v5.11a4.252,4.252,0,0,0-.511.62l-0.613.51c-0.034.07-.068,0.13-0.1,0.2h-0.2l-0.1.21h-0.2c-0.034.07-.068,0.13-0.1,0.2h-0.205l-0.1.21c-0.136.03-.273,0.06-0.409,0.1v0.1l-0.613.21v0.1h-0.307v0.1h-0.2v0.1c-0.205.04-.409,0.07-0.614,0.1a14.318,14.318,0,0,1-7.768.51h-0.511c-0.573-.17-2.292-0.54-2.555-0.91h-0.1c-0.034-.24-0.069-0.48-0.1-0.72h-0.1v-0.31h-0.1l-0.1-.51h-0.1c-0.034-.13-0.068-0.27-0.1-0.41h-0.1v-0.3h-0.1v-0.21h-0.1v-0.2c-0.068-.04-0.137-0.07-0.2-0.11-0.068-.2-0.136-0.4-0.2-0.61-0.068-.03-0.137-0.07-0.2-0.1-0.034-.14-0.068-0.27-0.1-0.41-0.1-.07-0.2-0.14-0.306-0.2v-0.21c-0.069-.03-0.137-0.07-0.205-0.1v-0.2c-0.136-.11-0.273-0.21-0.409-0.31v-0.21c-0.238-.2-0.477-0.4-0.715-0.61v-1.74Zm-22.589,4.09a7.348,7.348,0,0,0-.409,1.02c0.1,0.04.2,0.07,0.306,0.11v0.1h0.205c0.034,0.07.068,0.13,0.1,0.2h0.2v0.11a0.761,0.761,0,0,1,.409.2c0.206-.06.089,0.01,0.2-0.1,0.17-.28.34-0.55,0.511-0.82A8.24,8.24,0,0,0,928.047,4183.12Zm22.282,0a6.977,6.977,0,0,0-1.533.82c0.17,0.31.341,0.61,0.511,0.92,0.2-.06.088,0.01,0.2-0.1l0.614-.21c0.034-.07.068-0.13,0.1-0.2a1.8,1.8,0,0,0,.511-0.21v-0.3A1.236,1.236,0,0,1,950.329,4183.12Zm-12.163,8.59a1.919,1.919,0,0,1-.716-0.31c-0.034-.07-0.068-0.13-0.1-0.2h-0.2c-0.035-.07-0.069-0.14-0.1-0.21h-0.2c-0.034-.07-0.068-0.13-0.1-0.2H936.53l-0.1-.21h-0.2v-0.1c-0.1-.03-0.205-0.07-0.307-0.1l-0.1-.21H935.61c-0.034-.06-0.068-0.13-0.1-0.2h-0.2v-0.1c-0.1-.04-0.2-0.07-0.307-0.1l-0.1-.21h-0.1v0.1a0.921,0.921,0,0,0-.205.41,1.917,1.917,0,0,1-.2.1v0.21h-0.1v0.2c-0.069.04-.137,0.07-0.205,0.11v0.2h-0.1v0.2c-0.068.04-.136,0.07-0.2,0.11-0.034.13-.069,0.27-0.1,0.41a1.917,1.917,0,0,0-.2.1c-0.034.13-.068,0.27-0.1,0.41a1.931,1.931,0,0,0-.2.1v0.1h0.1a1.927,1.927,0,0,0,.716.51l0.1,0.21h0.205c0.034,0.06.068,0.13,0.1,0.2h0.2c0.068,0.1.137,0.21,0.205,0.31H935c0.034,0.07.068,0.13,0.1,0.2h0.2l0.1,0.21h0.2l0.205,0.3h0.2v0.11c0.1,0.03.205,0.06,0.307,0.1,0.034,0.07.068,0.13,0.1,0.2h0.205c0.068,0.1.136,0.21,0.2,0.31h0.2c0.034,0.07.068,0.13,0.1,0.2h0.2a4.442,4.442,0,0,0,1.329.92V4196a2.674,2.674,0,0,0,.613-0.92c0.068-.03.136-0.07,0.205-0.1,0.034-.1.068-0.21,0.1-0.31h0.1c0.034-.13.068-0.27,0.1-0.41h0.1c0.034-.1.068-0.2,0.1-0.3,0.068-.04.136-0.07,0.2-0.11v-0.2h0.1c0.034-.1.068-0.2,0.1-0.31,0.069-.03.137-0.07,0.205-0.1v-0.2c0.068-.04.136-0.07,0.2-0.11l0.1-.3h0.1c0.034-.14.068-0.28,0.1-0.41h0.1c0.034-.1.068-0.21,0.1-0.31,0.069-.03.137-0.07,0.205-0.1v-0.2c0.068-.04.136-0.07,0.2-0.11v-0.2c0.068-.03.136-0.07,0.2-0.1v-0.21c0.068-.03.136-0.07,0.2-0.1v-0.2c0.068-.04.136-0.07,0.2-0.11,0.034-.13.068-0.27,0.1-0.41a1.917,1.917,0,0,0,.2-0.1v-0.2a1.841,1.841,0,0,1,.205-0.1v-0.21c0.068-.03.136-0.07,0.2-0.1v-0.21a1.917,1.917,0,0,0,.2-0.1v-0.2a2.029,2.029,0,0,1,.205-0.1v-0.21c0.068-.03.136-0.07,0.2-0.1,0.034-.14.068-0.27,0.1-0.41,0.069-.03.137-0.07,0.2-0.1v-0.21a1.917,1.917,0,0,0,.2-0.1v-0.2c0.068-.04.137-0.07,0.2-0.11v-0.2c0.068-.03.136-0.07,0.2-0.1v-0.21a2.029,2.029,0,0,0,.2-0.1v-0.2a1.917,1.917,0,0,1,.2-0.1c0.034-.14.068-0.28,0.1-0.41,0.068-.04.137-0.07,0.205-0.11v-0.2c0.068-.03.136-0.07,0.2-0.1v-0.21h0.1l0.1-.3c-0.1-.04-0.2-0.07-0.306-0.11v-0.1h-0.205v-0.1h-0.2c-0.034-.07-0.068-0.14-0.1-0.2-0.137-.04-0.273-0.07-0.409-0.11-0.034-.07-0.068-0.13-0.1-0.2-0.136-.04-0.273-0.07-0.409-0.1l-0.1-.21h-0.205v-0.1h-0.2l-0.1-.21h-0.205v-0.1c-0.2.06-.088-0.01-0.2,0.1-0.245.17-.065,0.08-0.205,0.31h-0.1v0.21a1.917,1.917,0,0,0-.2.1v0.2h-0.1v0.21c-0.069.03-.137,0.07-0.2,0.1v0.2h-0.1v0.21c-0.068.03-.136,0.07-0.2,0.1-0.034.14-.068,0.27-0.1,0.41-0.068.03-.136,0.07-0.2,0.1v0.21h-0.1v0.2c-0.069.03-.137,0.07-0.205,0.1-0.034.14-.068,0.28-0.1,0.41a1.841,1.841,0,0,1-.205.1c-0.034.14-.068,0.28-0.1,0.41a1.917,1.917,0,0,1-.2.1c-0.034.14-.068,0.28-0.1,0.41-0.068.04-.137,0.07-0.205,0.11-0.034.13-.068,0.27-0.1,0.4-0.068.04-.136,0.07-0.2,0.11-0.035.13-.069,0.27-0.1,0.41a1.917,1.917,0,0,0-.2.1v0.2h-0.1v0.21c-0.068.03-.137,0.07-0.2,0.1-0.034.13-.068,0.27-0.1,0.41-0.068.03-.136,0.07-0.2,0.1-0.034.14-.069,0.27-0.1,0.41-0.068.03-.136,0.07-0.2,0.1-0.034.14-.068,0.27-0.1,0.41-0.068.03-.136,0.07-0.205,0.1v0.21h-0.1v0.2h-0.1C938.234,4191.5,938.2,4191.61,938.166,4191.71Zm15.945,1.74a3.493,3.493,0,0,1,.2-0.92v-0.72h0.1v-1.53h0.1c-0.068-.79-0.136-1.57-0.2-2.35h0.1v0.1c0.238,0.03.477,0.07,0.715,0.1v0.1h0.307v0.1h0.409v0.11h0.511v0.1h0.511v0.1h0.715a14.426,14.426,0,0,0,6.746-.41l1.329-.3v-0.11h0.2v-0.1h0.307v-0.1l0.613-.21v-0.1h0.205v-0.1c0.2-.07.409-0.14,0.613-0.2l0.1-.21h0.2v-0.1c0.1-.03.2-0.07,0.306-0.1,0.035-.07.069-0.14,0.1-0.21h0.2c0.034-.07.068-0.13,0.1-0.2,0.171-.1.341-0.21,0.511-0.31v5.01c-0.308.2-.045,0.09-0.2,0.31-0.068.03-.136,0.07-0.205,0.1-0.17.2-.34,0.41-0.511,0.61a3.063,3.063,0,0,1-.613.41l-0.1.21h-0.2c-0.035.06-.069,0.13-0.1,0.2-0.2.07-.409,0.14-0.613,0.2l-0.1.21h-0.205v0.1h-0.306v0.1h-0.2v0.11h-0.306a13.272,13.272,0,0,1-5.315,1.02c-0.886-.04-1.772-0.07-2.658-0.1v-0.11h-0.613v-0.1H956.36v-0.1h-0.409v-0.1h-0.409v-0.11C955.065,4193.72,954.588,4193.58,954.111,4193.45Zm-28.006-3.89v1.13h2.759v-1.13h-2.759Zm23.406,0v1.13h2.76v-1.13h-2.76Zm19.523,3.07a3.424,3.424,0,0,1,.1,1.53,8.443,8.443,0,0,1-.1,2.56h-0.1c-0.068.2-.136,0.4-0.205,0.61h-0.1c-0.034.14-.068,0.27-0.1,0.41-0.1.07-.2,0.13-0.307,0.2-0.034.1-.068,0.21-0.1,0.31-0.136.1-.272,0.2-0.409,0.31v0.1h-0.2l-0.409.51h-0.2c-0.034.07-.069,0.14-0.1,0.2-0.1.04-.2,0.07-0.306,0.11v0.1c-0.136.03-.273,0.07-0.409,0.1-0.034.07-.068,0.14-0.1,0.2-0.784.31-1.568,0.62-2.351,0.92h-0.409v0.11H962.8v0.1h-0.613v0.1H961.47a9.716,9.716,0,0,1-3.884-.1h-0.613v-0.1c-0.273-.04-0.545-0.07-0.818-0.11v-0.1h-0.306v-0.1h-0.307v-0.1h-0.307v-0.1h-0.306v-0.11c-0.137-.03-0.273-0.06-0.409-0.1v-0.1h-0.2v-0.1h-0.2v-0.11h-0.2v-0.1H953.7v-0.1h-0.2v-0.1c-0.1-.04-0.205-0.07-0.307-0.1l-0.1-.21h-0.205c-0.1-.13-0.2-0.27-0.306-0.41a0.992,0.992,0,0,1-.716-0.82,1.552,1.552,0,0,0,.409-0.61c0.068-.03.136-0.07,0.205-0.1,0.034-.14.068-0.27,0.1-0.41,0.068-.03.136-0.07,0.2-0.1v-0.21h0.1v-0.2h0.1v-0.2h0.1V4196h0.1v-0.2h0.1v-0.21h0.1v-0.3h0.1v-0.21h0.1c0.034-.2.068-0.41,0.1-0.61h0.1a5.638,5.638,0,0,0,1.534.51v0.1h0.408v0.1h0.511v0.11h0.512a15.635,15.635,0,0,0,8.585-.62h0.307v-0.1h0.307v-0.1h0.2v-0.1h0.307v-0.11c0.2-.07.409-0.13,0.613-0.2v-0.1H967.3l0.1-.21c0.136-.03.272-0.07,0.409-0.1,0.034-.07.068-0.14,0.1-0.2h0.2l0.1-.21A2.1,2.1,0,0,0,969.034,4192.63Zm-39.454,3.78c-0.1-.41-0.4-0.61-0.511-1.02a6.227,6.227,0,0,0-1.533.82c0.17,0.3.34,0.61,0.511,0.91h0.306a1.625,1.625,0,0,1,.716-0.4l0.1-.21C929.307,4196.48,929.444,4196.44,929.58,4196.41Zm19.727-1.02-0.511,1.02c0.637,0.13.871,0.62,1.533,0.71a5.486,5.486,0,0,0,.409-1.02C950.148,4195.98,949.893,4195.53,949.307,4195.39Zm-10.63,3.98v3.89H939.7v-3.89h-1.022Zm-5.724.41a6.459,6.459,0,0,0-.716,1.43c0.193,0.22.529,0.29,0.716,0.51,0.205-.05.088,0.02,0.2-0.1a3.8,3.8,0,0,0,.716-1.22h0.1v-0.11h-0.1A3.211,3.211,0,0,0,932.953,4199.78Zm12.265,0a1.734,1.734,0,0,1-.817.51c0.272,0.48.545,0.96,0.817,1.43,0.206-.05.089,0.02,0.205-0.1a1.649,1.649,0,0,0,.818-0.51C945.8,4200.8,945.776,4199.95,945.218,4199.78Z" transform="translate(-919.25 -4154.19)"/>
</svg>
