<svg xmlns="http://www.w3.org/2000/svg" width="46.781" height="46.76" viewBox="0 0 46.781 46.76">
  <defs>
    <style>
      .cls-1 {
        fill: #fff;
        fill-rule: evenodd;
      }
    </style>
  </defs>
  <path id="Reduc_Input_Cost" data-name="Reduc Input Cost" class="cls-1" d="M941.7,4282.63h5.055v3.44a1.875,1.875,0,0,1,.763.19v0.09c0.286,0.1.572,0.19,0.858,0.29v0.09h0.191v0.1c0.129,0.04.015-.04,0.1-0.1l1.716-1.62a1.732,1.732,0,0,1,.763-0.67l2.48,2.58a2.741,2.741,0,0,1,.954,1.05c-0.8.76-1.59,1.52-2.385,2.29a8.8,8.8,0,0,1,.763,1.91h3.434v5.05h-3.434a4.11,4.11,0,0,1-.381,1.24h-0.1v0.29l-0.191.09v0.19h-0.1c-0.054.13,0.046,0.05,0.1,0.1l1.621,1.71a1.729,1.729,0,0,1,.668.77c-0.859.82-1.717,1.65-2.575,2.48a2.758,2.758,0,0,1-1.049.95,2.334,2.334,0,0,0-.477-0.48l-1.145-1.14a1.358,1.358,0,0,0-.858-0.67,1.287,1.287,0,0,1-.668.29v0.09c-0.159.04-.318,0.07-0.477,0.1v0.09c-0.19.04-.381,0.07-0.572,0.1v3.43H941.7v-3.33l-1.144-.39v-0.09c-0.286-.1-0.573-0.19-0.859-0.29-0.763.8-1.526,1.59-2.289,2.39a0.165,0.165,0,0,1-.1-0.1,7.778,7.778,0,0,1-1.335-1.33l-1.526-1.53a3.562,3.562,0,0,1-.668-0.67,2.621,2.621,0,0,0,.572-0.57l1.145-1.14a1.369,1.369,0,0,0,.668-0.86,1.945,1.945,0,0,1-.382-0.86h-0.1v-0.19h-0.1a1.767,1.767,0,0,0-.19-0.67h-3.339v-5.05H935.5c0.029-.82.571-1.25,0.668-2.01a2.086,2.086,0,0,1-.477-0.47c-0.382-.39-0.763-0.77-1.145-1.15a1.69,1.69,0,0,1-.667-0.76c0.858-.83,1.716-1.65,2.575-2.48a2.769,2.769,0,0,1,1.049-.96c0.763,0.8,1.526,1.59,2.289,2.39a5.79,5.79,0,0,1,1.907-.76v-3.44Zm2,18.79v-3.62a4.007,4.007,0,0,1-3.529-4.01,4.477,4.477,0,0,1,3.338,1.72c0.032,0.13.064,0.25,0.1,0.38l0.19,0.09c0.128,0.45.255,0.89,0.382,1.34h0.1a4.057,4.057,0,0,1,4.006-3.53,4.356,4.356,0,0,1-1.812,3.43h-0.191v0.1c-0.191.06-.381,0.13-0.572,0.19v0.1H945.42v0.09a1.5,1.5,0,0,0-.763.19v3.44a1.069,1.069,0,0,0,.381.09l2-.57a7.411,7.411,0,0,0,3.434-3.72c0.031-.22.063-0.45,0.1-0.67a6.679,6.679,0,0,0-1.144-5.82c-0.191-.15-0.382-0.31-0.573-0.47-0.159-.19-0.318-0.38-0.477-0.58h-0.19c-0.064-.09-0.127-0.19-0.191-0.28H947.8c-0.032-.07-0.063-0.13-0.1-0.19-0.127-.03-0.255-0.07-0.382-0.1v-0.09c-0.19-.07-0.381-0.13-0.572-0.19v-0.1h-0.286v-0.09h-0.191v-0.1H945.9a5.727,5.727,0,0,0-2.385-.29l-1.621.39v0.09H941.7v0.1h-0.286v0.09h-0.191v0.1h-0.19c-0.032.06-.064,0.12-0.1,0.19l-0.381.09c-0.064.1-.127,0.19-0.191,0.29h-0.191c-0.1.13-.191,0.25-0.286,0.38H939.7c-0.031.06-.063,0.13-0.1,0.19-0.127.1-.254,0.19-0.382,0.29v0.19c-0.127.09-.254,0.19-0.381,0.29v0.19l-0.191.09v0.19c-0.063.03-.127,0.07-0.19,0.1-0.032.12-.064,0.25-0.1,0.38h-0.095c-0.032.13-.064,0.25-0.1,0.38h-0.1c-0.159.57-.318,1.14-0.477,1.72a6.291,6.291,0,0,0,.191,2.38c0.064,0.32.127,0.64,0.191,0.95h0.1v0.2h0.1v0.19h0.1v0.19h0.095v0.19h0.1v0.19h0.1v0.19l0.191,0.09v0.2c0.127,0.09.254,0.19,0.381,0.28v0.19l0.572,0.48c0.064,0.09.128,0.19,0.191,0.29h0.191c0.1,0.12.191,0.25,0.286,0.38h0.191c0.032,0.06.063,0.12,0.095,0.19h0.191v0.09h0.191v0.1h0.19v0.09h0.191v0.1l0.382,0.09v0.1C942.431,4301.17,943.067,4301.29,943.7,4301.42Zm-19.075,5.63,2,0.09v0.1h0.286v0.09H927.2v0.1h0.286v0.1h0.191v0.09h0.191v0.1l0.286,0.09c0.032,0.06.064,0.13,0.095,0.19h0.191c0.064,0.1.127,0.19,0.191,0.29h0.191c0.095,0.13.191,0.25,0.286,0.38h0.1v0.19c0.1,0.06.191,0.13,0.286,0.19v0.19c0.064,0.03.128,0.07,0.191,0.1v0.19l0.191,0.09v0.19h0.1V4310h0.1c0.031,0.2.063,0.39,0.095,0.58a4.58,4.58,0,0,1,.286,2.29h-0.1v0.47h-0.1v0.29h-0.1v0.29h-0.095v0.28h-0.1v0.19h-0.1v0.19a1.75,1.75,0,0,1-.191.1v0.19l-0.191.09v0.2c-0.095.06-.19,0.12-0.286,0.19v0.19h-0.1c-0.064.09-.127,0.19-0.191,0.28h-0.191c-0.1.13-.19,0.26-0.286,0.38h-0.191c-0.031.07-.063,0.13-0.095,0.2l-0.286.09v0.1l-1.717.57a6.341,6.341,0,0,1-2.575-.29v-0.09h-0.286v-0.1H923.1v-0.09h-0.19c-0.032-.07-0.064-0.13-0.1-0.19h-0.191c-0.031-.07-0.063-0.13-0.1-0.2h-0.191c-0.063-.09-0.127-0.19-0.19-0.28h-0.191v-0.1c-0.127-.09-0.255-0.19-0.382-0.28v-0.19c-0.127-.1-0.254-0.19-0.381-0.29-0.032-.13-0.064-0.25-0.1-0.38a1.738,1.738,0,0,1-.19-0.1v-0.19h-0.1v-0.19h-0.1q-0.048-.285-0.095-0.57a4.6,4.6,0,0,1-.287-2.29h0.1v-0.48h0.1v-0.28h0.1v-0.29h0.095V4310h0.1v-0.19h0.1v-0.19l0.19-.09v-0.19c0.064-.03.128-0.07,0.191-0.1v-0.19c0.1-.06.191-0.13,0.286-0.19v-0.19c0.127-.1.255-0.19,0.382-0.29v-0.09h0.191c0.063-.1.127-0.19,0.19-0.29h0.191c0.032-.06.064-0.13,0.1-0.19h0.191c0.032-.06.064-0.13,0.1-0.19h0.19v-0.09h0.191v-0.1h0.286v-0.1h0.286v-0.09h0.286v-0.1h0.477v-0.09Zm1.622,6.87h-0.191c-0.032.06-.064,0.12-0.1,0.19h-2.1v1.05h0.954v0.95a3.321,3.321,0,0,0,1.049.09v-0.09h0.095a1.758,1.758,0,0,1,.1-0.95v-0.1c0.159-.03.318-0.06,0.477-0.1v-0.09h0.191c0.1-.13.19-0.25,0.286-0.38h0.095v-0.19c0.064-.03.127-0.07,0.191-0.1v-0.28a1.788,1.788,0,0,0,.1-1.15h-0.1a2.011,2.011,0,0,0-1.049-1.14c-0.415-.16-1.513.03-1.717-0.29v-0.19a1.021,1.021,0,0,1,0-.86h0.191c0.031-.06.063-0.13,0.095-0.19h2.1v-1.05h-0.954v-0.95a3.29,3.29,0,0,0-1.049-.1v0.1h-0.1a1.759,1.759,0,0,1-.095.95v0.1l-0.477.09v0.1h-0.191c-0.1.12-.191,0.25-0.286,0.38h-0.1v0.19l-0.19.09v0.29a1.781,1.781,0,0,0-.1,1.15h0.1a2,2,0,0,0,1.049,1.14c0.414,0.16,1.513-.04,1.717.29v0.19A1.021,1.021,0,0,1,926.25,4313.92Zm39.008,6.29v-0.19a4.191,4.191,0,0,1-.763-0.76,4.033,4.033,0,0,1-.763-0.77,1.586,1.586,0,0,0,.572-0.57H964.5c0.6,0.64,1.208,1.27,1.812,1.91a1.415,1.415,0,0,1,.763,1.14l-3.148,2.67h-0.1v-0.09a1.938,1.938,0,0,1-.572-0.67l0.763-.57c0.063-.1.127-0.19,0.191-0.29h0.19c0.127-.16.255-0.32,0.382-0.47h0.191c0.031-.07.063-0.13,0.1-0.2h0.1v-0.19a7.74,7.74,0,0,1-1.907-.09h-1.622v-0.1H960.3v-0.09h-1.144v-0.1h-1.049v-0.09h-0.954v-0.1H956.2v-0.09h-0.763v-0.1l-1.526-.09c-1.3-.38-2.933-0.39-4.2-0.77-0.7-.09-1.4-0.19-2.1-0.28q-3.623-.87-7.248-1.72v-0.1c-0.445-.09-0.89-0.19-1.335-0.28v-0.1l-0.668-.09v-0.1c-0.318-.06-0.636-0.13-0.954-0.19v-0.09h-0.286v-0.1h-0.286v-0.09H936.55v-0.1h-0.286v-0.1h-0.382v-0.09H935.6v-0.1H935.31v-0.09h-0.286v-0.1h-0.286v-0.09h-0.286v-0.1h-0.191v-0.09c-0.445-.13-0.89-0.26-1.335-0.38a2.836,2.836,0,0,1,.286-0.96,4.129,4.129,0,0,1,.954.38c0.286,0.07.572,0.13,0.858,0.19v0.1h0.286v0.09H935.6v0.1h0.286v0.1h0.287v0.09h0.286v0.1h0.286v0.09h0.286v0.1h0.381v0.09h0.286v0.1h0.287v0.09h0.286v0.1c0.318,0.06.636,0.13,0.953,0.19v0.09c0.446,0.1.891,0.2,1.336,0.29v0.1c0.477,0.09.954,0.19,1.43,0.28v0.1c0.382,0.06.763,0.12,1.145,0.19,1.3,0.44,2.866.63,4.2,1.05,0.509,0.06,1.018.12,1.526,0.19,1.007,0.31,2.312.36,3.338,0.67h0.668v0.09h0.668v0.1l1.43,0.09v0.1h0.763v0.09h0.763v0.1h0.954v0.09h0.954v0.1h1.049s0,0.08.191,0.09h1.049v0.1h1.335v0.09C963.1,4320.15,964.177,4320.18,965.258,4320.21Zm-35.766-1.43H933.5v10.59h-4.006v-10.59Zm9.156,2.48h4.006v8.11h-4.006v-8.11Zm9.156,2.1h4.006v6.01H947.8v-6.01Zm8.679,2h4.006v4.01h-4.006v-4.01Z" transform="translate(-920.281 -4282.62)"/>
</svg>
