<svg xmlns="http://www.w3.org/2000/svg" width="41.5" height="41.5" viewBox="0 0 41.5 41.5">
  <defs>
    <style>
      .cls-1 {
        fill: #fff;
        fill-rule: evenodd;
      }
    </style>
  </defs>
  <path id="Predict_Plan_Harvesting" data-name="Predict &amp; Plan Harvesting" class="cls-1" d="M924.242,4031.24h16.691v6.27c-1.343,0-2.859-.03-4.067.09a1.159,1.159,0,0,0-.423.76,2.1,2.1,0,0,0-.085,1.01V4052H924.242v-20.76Zm24.825,0h16.691V4052H953.642c0-4.63.13-9.5-.085-13.98a4,4,0,0,0-.678-0.51h-3.812v-6.27Zm-20.334,4.49H927.8a2.022,2.022,0,0,0-1.356,2.12h0.085v0.34h0.084c0.029,0.11.057,0.22,0.085,0.34h0.085a0.7,0.7,0,0,1,.169.34,0.668,0.668,0,0,1,.339.17v0.08h0.17v0.09h0.169v0.08h0.339v0.08h2.118a31.959,31.959,0,0,0,5.253-.16,3.855,3.855,0,0,1,.424-0.43,0.8,0.8,0,0,1,.169-0.34v-0.42h0.085v-0.08c-0.085-.26-0.17-0.51-0.254-0.77-0.113-.08-0.226-0.17-0.339-0.25v-0.09h-0.17v-0.08c-0.055-.03-0.646-0.17-0.677-0.17v0.08h-0.255v-0.17a3.122,3.122,0,0,0-1.016-.67,2.579,2.579,0,0,0-.848-1.78c-0.028-.06-0.056-0.12-0.084-0.17l-0.339-.09c-0.028-.05-0.057-0.11-0.085-0.17-0.2-.02-0.395-0.05-0.593-0.08A2.207,2.207,0,0,0,928.733,4035.73Zm28.044-1.78v9.49a3.71,3.71,0,0,0-1.525,4.75h0.085v0.17a1.354,1.354,0,0,1,.169.08v0.17l0.169,0.09v0.16c0.085,0.06.17,0.12,0.255,0.17,0.113,0.14.226,0.29,0.338,0.43h0.17c0.028,0.05.056,0.11,0.085,0.17h0.169c0.028,0.05.057,0.11,0.085,0.17h0.169v0.08H957.2v0.09h0.17v0.08h0.254v0.09h0.509v0.08a4.778,4.778,0,0,0,2.2-.42c0.029-.06.057-0.12,0.085-0.17h0.17c0.028-.06.056-0.12,0.084-0.17h0.17l0.423-.51,0.17-.09v-0.16l0.169-.09v-0.17a1.3,1.3,0,0,1,.17-0.08v-0.17h0.084v-0.26h0.085v-0.17h0.085v-0.25h0.085V4047a3.472,3.472,0,0,0-1.78-3.56v-9.49h-3.558Zm1.356,3.56h0.847v7.29a2.229,2.229,0,0,1,1.355,1.35,1.686,1.686,0,0,1-.084.85v0.25h-0.085v0.17h-0.085v0.17c-0.085.06-.169,0.12-0.254,0.17-0.085.12-.169,0.23-0.254,0.34H959.4v0.09a2.322,2.322,0,0,1-1.525.08v-0.08h-0.169v-0.09h-0.17a2.163,2.163,0,0,1-.762-1.95h0.085v-0.25h0.084c0.029-.11.057-0.23,0.085-0.34,0.141-.11.282-0.23,0.424-0.34,0.028-.06.056-0.11,0.084-0.17a3.66,3.66,0,0,0,.594-0.25v-7.29Zm-20.758.93h15.25v18.98h-15.25v-18.98Zm-4.322,3.22c-0.028.09-.056,0.17-0.084,0.26h-0.085v0.17a1.291,1.291,0,0,0-.169.08c-0.029.11-.057,0.23-0.085,0.34a1.3,1.3,0,0,1-.17.08v0.17l-0.169.09c-0.028.11-.057,0.22-0.085,0.34-0.056.03-.113,0.05-0.169,0.08a1.846,1.846,0,0,0-.17.93,5.441,5.441,0,0,1,.255.6,0.636,0.636,0,0,1,.169.17h0.169c0.029,0.05.057,0.11,0.085,0.17,0.339,0.02.678,0.05,1.017,0.08a1.542,1.542,0,0,0,.678-0.68,1.251,1.251,0,0,0,.169-0.93h-0.085v-0.25l-0.169-.09v-0.17c-0.056-.03-0.113-0.05-0.169-0.08-0.029-.12-0.057-0.23-0.085-0.34l-0.17-.09v-0.16l-0.169-.09v-0.17h-0.085C933.321,4041.9,933.406,4041.76,933.053,4041.66Zm15.082,10.76h2.711v-9.49H948.22a12.032,12.032,0,0,0-.085,2.97v6.52Zm-19.826-8.55c-0.028.08-.057,0.16-0.085,0.25h-0.085v0.17h-0.084v0.17c-0.057.03-.113,0.05-0.17,0.08v0.17l-0.169.09c-0.028.11-.057,0.22-0.085,0.34a1.291,1.291,0,0,0-.169.08,2.233,2.233,0,0,0-.339,1.36c0.113,0.19.226,0.39,0.339,0.59a3.635,3.635,0,0,1,.593.34,3.913,3.913,0,0,0,1.016-.17,3.576,3.576,0,0,0,.594-0.85c-0.029-.25-0.057-0.51-0.085-0.76H929.5v-0.17H929.41v-0.17a1.291,1.291,0,0,0-.169-0.08c-0.028-.12-0.057-0.23-0.085-0.34l-0.169-.09v-0.17c-0.057-.03-0.113-0.05-0.17-0.08v-0.17h-0.084A1.172,1.172,0,0,0,928.309,4043.87Zm10.845,0.93v7.62h2.711v-7.62h-2.711Zm4.49,2.2v5.51h2.712V4047h-2.712ZM940,4054.71v0.93h0.932v-0.93H940Zm4.491,0v0.85a2.914,2.914,0,0,0,.932.08,2.948,2.948,0,0,0,.084-0.93h-1.016Zm4.575,0v0.93H950v-0.93h-0.932Zm-10.337,6.35a5.808,5.808,0,0,1,4.66,2.21c0.113,0.08.226,0.17,0.339,0.25v0.17l0.17,0.09v0.17a1.354,1.354,0,0,1,.169.08c0.028,0.11.056,0.23,0.085,0.34a4.586,4.586,0,0,1,.762,2.2h0.17a4.586,4.586,0,0,1,.762-2.2c0.028-.11.057-0.23,0.085-0.34a1.291,1.291,0,0,1,.169-0.08v-0.17l0.17-.09v-0.17c0.113-.08.226-0.17,0.339-0.25a5.806,5.806,0,0,1,4.66-2.21,6.227,6.227,0,0,1-5.846,6.27v5.43h-0.848v-5.43A6.234,6.234,0,0,1,938.73,4061.06Zm-14.064,2.29a6.274,6.274,0,0,1,5.846,3.82c0.169,0.64.339,1.29,0.508,1.94v-0.17h0.085v-0.59c0.169-.51.339-1.02,0.508-1.52H931.7v-0.17l0.169-.09c0.029-.11.057-0.22,0.085-0.34h0.085c0.028-.08.056-0.17,0.085-0.25l0.169-.09v-0.16c0.169-.15.339-0.29,0.508-0.43,0.2-.22.4-0.45,0.593-0.68a6.469,6.469,0,0,1,3.9-1.27,5.785,5.785,0,0,1-2.2,4.66c-0.085.12-.169,0.23-0.254,0.34h-0.17c-0.028.06-.056,0.11-0.084,0.17h-0.17c-0.028.06-.056,0.11-0.085,0.17-0.113.03-.225,0.06-0.338,0.08a4.53,4.53,0,0,1-2.542.77v3.22H930.6v-3.14a0.15,0.15,0,0,1-.084-0.08,5.272,5.272,0,0,1-2.373-.6v-0.08c-0.169-.06-0.339-0.11-0.508-0.17-0.028-.06-0.056-0.11-0.085-0.17h-0.169c-0.057-.08-0.113-0.17-0.17-0.25h-0.169l-0.424-.51c-0.226-.2-0.452-0.4-0.677-0.59V4067l-0.17-.09c-0.028-.08-0.056-0.17-0.085-0.25H925.6c-0.029-.12-0.057-0.23-0.085-0.34l-0.17-.09v-0.25h-0.084c-0.029-.11-0.057-0.23-0.085-0.34h-0.085v-0.25A5.9,5.9,0,0,1,924.666,4063.35Zm28.044,0a6.3,6.3,0,0,1,5.931,4.07c0.113,0.56.226,1.13,0.339,1.69h0.084a3.61,3.61,0,0,1,.255-1.18l0.084-.6h0.085c0.057-.16.113-0.33,0.17-0.5h0.084v-0.17h0.085c0.028-.12.056-0.23,0.085-0.34l0.169-.09v-0.17a1.3,1.3,0,0,0,.17-0.08v-0.17c0.113-.08.226-0.17,0.339-0.25v-0.17c0.141-.12.282-0.23,0.423-0.34,0.028-.06.057-0.12,0.085-0.17h0.169c0.085-.12.17-0.23,0.255-0.34h0.169c0.028-.06.056-0.11,0.085-0.17l0.254-.09v-0.08c0.169-.06.339-0.11,0.508-0.17v-0.08c0.17-.06.339-0.12,0.509-0.17v-0.09H963.3a5.2,5.2,0,0,1,2.033-.34,6.529,6.529,0,0,1-3.982,5.85H961.1v0.08h-0.254v0.09h-0.339v0.08h-0.339v0.09h-0.678v0.08a1.676,1.676,0,0,0-.085.85v2.29h-0.847v-3.22a4.454,4.454,0,0,1-2.542-.77c-0.113-.02-0.226-0.05-0.339-0.08-0.028-.06-0.056-0.11-0.084-0.17h-0.17c-0.028-.06-0.056-0.11-0.084-0.17h-0.17c-0.085-.11-0.169-0.22-0.254-0.34A5.782,5.782,0,0,1,952.71,4063.35Z" transform="translate(-924.25 -4031.25)"/>
</svg>
