<svg xmlns="http://www.w3.org/2000/svg" width="44.281" height="44.69" viewBox="0 0 44.281 44.69">
  <defs>
    <style>
      .cls-1 {
        fill: #fff;
        fill-rule: evenodd;
      }
    </style>
  </defs>
  <path id="Automate" class="cls-1" d="M940.624,4411.83h4.833a10.057,10.057,0,0,1,.273,1.37h-5.38C940.441,4412.74,940.533,4412.29,940.624,4411.83Zm-5.38,5.29h-1.915v-2.01h-0.091v-0.18l-0.183-.09v-0.18c-0.06-.04-0.121-0.06-0.182-0.1v-0.18l-0.182-.09v-0.18l-0.183-.09v-0.19h-0.091v-0.09h0.091a1.42,1.42,0,0,1,.547-0.36l0.092-.18h0.182c0.03-.06.061-0.12,0.091-0.19H933.6v-0.09l0.274-.09v0.09a2.3,2.3,0,0,1,.365.55l0.273,0.18v0.18c0.092,0.07.183,0.13,0.274,0.19v0.18l0.273,0.18v0.18c0.061,0.04.122,0.06,0.183,0.1v2.46Zm4.741-2.83H946a0.174,0.174,0,0,0,.091.09,5.425,5.425,0,0,0,.365,1.55v0.46a17.3,17.3,0,0,1,.456,1.73h-7.751v-0.09a2.813,2.813,0,0,0,.182-1h0.091v-0.37h0.092c0.03-.27.06-0.55,0.091-0.82h0.091v-0.45A4.117,4.117,0,0,0,939.985,4414.29Zm11.216,12.04h-1.276a5.624,5.624,0,0,0-3.739-5.11h-0.365v-0.09h-0.456a4.2,4.2,0,0,0-2.462.18l-0.547.09v0.09c-0.121.04-.243,0.07-0.364,0.1v0.09h-0.183l-0.091.18h-0.182l-0.092.18h-0.182c-0.121.15-.243,0.31-0.365,0.46a4.653,4.653,0,0,0-1.732,3.83h-2.28a2.486,2.486,0,0,0-.365-0.82,1.207,1.207,0,0,1-.456-0.55,1.053,1.053,0,0,1-.455-0.27v-0.1l-0.365-.09c-0.031-.06-0.061-0.12-0.091-0.18a5.265,5.265,0,0,0-2.645-.36v0.09h-0.365v0.09h-0.182v0.09l-0.456.09-0.091.18-0.365.09v0.1a1.051,1.051,0,0,1-.456.27,1.2,1.2,0,0,1-.456.55,2.547,2.547,0,0,0-.364.82H928.04v-0.09a0.734,0.734,0,0,0,.182-0.37h0.092v-0.18h0.091v-0.27H928.5v-0.19h0.091v-0.18h0.091v-0.18h0.092c0.06-.18.121-0.37,0.182-0.55h0.091v-0.27h0.091c0.061-.18.122-0.37,0.183-0.55h0.091v-0.18H929.5c0.031-.12.061-0.24,0.091-0.37h0.091v-0.27h0.092c0.03-.12.06-0.24,0.091-0.36h0.091c0.03-.13.061-0.25,0.091-0.37h0.091c0.031-.12.061-0.24,0.092-0.36h0.091v-0.28h0.091c0.061-.18.122-0.36,0.182-0.55h0.091c0.092-.27.183-0.54,0.274-0.82h0.091c0.031-.12.061-0.24,0.091-0.36h0.092a1.525,1.525,0,0,1,.182-0.46h16.961c0.475,1.26,1.02,2.55,1.55,3.74v0.28h0.091v0.18h0.091c0.031,0.15.061,0.3,0.091,0.45h0.092v0.28h0.091v0.18h0.091v0.27h0.091v0.19h0.091v0.27A4.7,4.7,0,0,1,951.2,4426.33Zm6.657-5.75a1.912,1.912,0,0,1-.547.82,1.649,1.649,0,0,0-1.368-.36,2.243,2.243,0,0,1-.638.36c-0.031.06-.061,0.13-0.091,0.19h-0.183l-0.091.18-0.365.09v0.09a3.162,3.162,0,0,1-3.009-1.09,2.527,2.527,0,0,0,.547-0.64,3.392,3.392,0,0,0,2.006.91v-0.09l0.456-.09c0.061-.09.122-0.19,0.183-0.28h0.182l0.091-.18,0.274-.09v-0.09a3.413,3.413,0,0,1,1.55-.18v0.09l0.547,0.09v0.09h0.182v0.09Zm-16.5,2.74a1.3,1.3,0,0,0,.547-0.37v-0.09a5.259,5.259,0,0,1,3.192-.82c0.547,0.18,1.094.37,1.641,0.55,0.031,0.06.061,0.12,0.091,0.18h0.183c0.061,0.09.121,0.18,0.182,0.28h0.183c0.03,0.06.06,0.12,0.091,0.18l0.456,0.36v0.18c0.061,0.03.121,0.07,0.182,0.1v0.18l0.182,0.09v0.18h0.092c0.03,0.12.06,0.24,0.091,0.37h0.091c0.03,0.18.061,0.36,0.091,0.54a4.115,4.115,0,0,1,.183,1.92h-0.092v0.45c-0.243.49-.486,0.98-0.729,1.46-0.122.09-.243,0.19-0.365,0.28l-0.456.54h-0.182c-0.031.07-.061,0.13-0.091,0.19l-0.365.09v0.09l-0.547.18v0.09H945.73v0.09h-0.456v0.09a5.881,5.881,0,0,1-2.188-.18v-0.09h-0.274v-0.09l-0.547-.18c-0.03-.06-0.061-0.12-0.091-0.19h-0.182l-0.092-.18h-0.182l-0.365-.45-0.182-.09v-0.19l-0.274-.18v-0.18l-0.182-.09v-0.19h-0.091v-0.18h-0.091v-0.27h-0.092v-0.18H940.35v-0.37a3.6,3.6,0,0,1,.365-3.01c0.03-.12.061-0.24,0.091-0.36l0.183-.09v-0.19h0.091A1.021,1.021,0,0,0,941.353,4423.32Zm14.59,1.55a0.682,0.682,0,0,1,.182-0.37h0.092v-0.18h0.091a0.344,0.344,0,0,1,.365-0.18,2.286,2.286,0,0,0,1.915.82,0.654,0.654,0,0,1,.364-0.18c0.031-.06.061-0.12,0.091-0.19h0.183l0.182-.27,0.821-.27v-0.09c0.728-.23,2.028.37,1.915,0.63-0.122.22-.243,0.43-0.365,0.64a2.572,2.572,0,0,0-1.459-.36v0.09h-0.182c-0.031.06-.061,0.12-0.091,0.18h-0.183l-0.091.18H959.59c-0.03.07-.06,0.13-0.091,0.19h-0.182l-0.091.18h-0.274v0.09l-1.094.09v-0.09h-0.365v-0.09H957.22v-0.09l-0.365-.09c-0.03-.06-0.061-0.12-0.091-0.19h-0.183c-0.03-.06-0.06-0.12-0.091-0.18h-0.182v-0.09A0.752,0.752,0,0,0,955.943,4424.87Zm-11.854-.46v0.09l-0.456.09v0.1h-0.182l-0.092.18h-0.182l-0.091.18H943v0.18l-0.183.09v0.19h-0.091a2.361,2.361,0,0,0-.182,1.27h0.091v0.37h0.091a1.973,1.973,0,0,0,1.277,1.18h1.094c0.185-.21.6-0.32,0.821-0.54s0.333-.64.547-0.82a3.141,3.141,0,0,0-.274-1.74l-0.182-.09-0.274-.36h-0.182v-0.09a1.142,1.142,0,0,1-.274-0.19Zm-11.216.55a2.8,2.8,0,0,1,2.644,1.09c0.092,0.06.183,0.13,0.274,0.19,0.03,0.12.061,0.24,0.091,0.36a2.887,2.887,0,0,1-1.915,4.1,2.761,2.761,0,0,1-1.276-.09h-0.365v-0.09l-0.365-.09v-0.09h-0.182c-0.031-.06-0.061-0.12-0.091-0.18h-0.183c-0.03-.06-0.061-0.12-0.091-0.19l-0.365-.27v-0.18l-0.182-.09v-0.18h-0.091c-0.031-.13-0.061-0.25-0.092-0.37h-0.091v-0.27H930.5v-0.55h-0.091v-0.46H930.5v-0.54h0.091v-0.28h0.091c0.031-.12.061-0.24,0.092-0.36h0.091v-0.18c0.091-.06.182-0.13,0.273-0.19v-0.18l0.183-.09v-0.09h0.182l0.183-.27h0.182v-0.1l0.547-.18v-0.09h0.456v-0.09Zm0.091,1.91c-0.414.49-.646,0.29-0.638,1.28a1.035,1.035,0,0,0,.547.55,1.071,1.071,0,0,0,1.094,0,6.144,6.144,0,0,0,.365-0.55,1.18,1.18,0,0,0-.638-1.28h-0.73Zm-10.76,3.93h8.663v0.91H922.2v-0.91Zm30.183,1a4.014,4.014,0,0,0-1.915,1H950.29c-0.183.21-.365,0.43-0.548,0.64-0.243.21-.486,0.43-0.729,0.64v0.18l-0.182.09v0.18c-0.092.07-.183,0.13-0.274,0.19-0.213.48-.426,0.97-0.638,1.46h-0.274v-0.1l-0.547-.09a2.984,2.984,0,0,1,.547-1.27c0.061-.19.122-0.37,0.183-0.55l0.182-.09v-0.18c0.091-.06.182-0.13,0.273-0.19v-0.18l0.548-.45v-0.19l0.182-.09v-0.09H949.2c0.152-.18.3-0.36,0.456-0.55h0.183l0.182-.27H950.2l0.092-.18h0.182l0.091-.18h0.182c0.274-.16,1.093-0.74,1.368-0.55A1.6,1.6,0,0,1,952.387,4431.8Zm-2.006,5.56-0.912-.09a5.317,5.317,0,0,1,2.28-3.37c0.121-.03.243-0.06,0.364-0.1v-0.09a3.549,3.549,0,0,1,1.277-.36c0.061,0.27.121,0.55,0.182,0.82-0.425.15-.851,0.3-1.276,0.46l-0.092.18h-0.182A4.49,4.49,0,0,0,950.381,4437.36Zm-9.848,12.31a3.459,3.459,0,0,0-1.642-3.65l-0.091-.18-0.365-.09v-0.09h-0.182v-0.09a7.857,7.857,0,0,1-1.459-.37,1.327,1.327,0,0,0,.456-0.45v-0.18a1.736,1.736,0,0,1,.182-0.1,4.582,4.582,0,0,0,.183-2.46,10.419,10.419,0,0,0,1.823-.09,1.082,1.082,0,0,1,.274-0.36,10.662,10.662,0,0,0-.091-1.83,0.933,0.933,0,0,1-.183-0.18h-0.182v-0.09c-0.851-.12-1.7-0.25-2.553-0.37a3.056,3.056,0,0,0-.365-1.46l-0.182-.09v-0.18h-0.092c-0.03-.06-0.06-0.12-0.091-0.18a6.145,6.145,0,0,1-.912-0.55l-1.094-.09a2.616,2.616,0,0,0-2.1,2.55c-0.912.16-1.824,0.31-2.736,0.46a3.9,3.9,0,0,0-.182,1.73h-0.091q-1.869-1.9-3.739-3.83a1.149,1.149,0,0,0,.547-0.45h0.183c0.06-.09.121-0.19,0.182-0.28h0.182l0.183-.27,0.364-.09,0.092-.18c0.121-.03.243-0.07,0.364-0.1l0.092-.18h0.182v-0.09h0.182v-0.09h0.274v-0.09l0.365-.09v-0.09h0.273v-0.1h0.183v-0.09h0.273v-0.09h0.365v-0.09h0.273v-0.09h0.365v-0.09H930.5v-0.09h0.73v-0.09h1.094a8.627,8.627,0,0,1,3.009.45H935.7v0.09h0.273v0.09h0.183v0.1h0.273v0.09l0.365,0.09v0.09h0.274v0.09h0.182v0.09h0.182c0.031,0.06.061,0.12,0.091,0.18,0.122,0.03.244,0.07,0.365,0.1,0.031,0.06.061,0.12,0.091,0.18h0.183v0.09l0.273,0.09,0.092,0.18h0.182c0.061,0.09.122,0.19,0.182,0.28h0.183l0.547,0.63H939.8v0.1l0.274,0.18v0.18c0.212,0.18.425,0.37,0.638,0.55v0.18l0.274,0.18v0.18c0.06,0.03.121,0.07,0.182,0.1l0.091,0.27h0.091v0.18l0.183,0.09c0.03,0.12.06,0.25,0.091,0.37l0.182,0.09v0.18H941.9v0.18h0.092v0.28h0.091c0.03,0.12.061,0.24,0.091,0.36h0.091v0.28h0.091v0.18h0.092v0.27h0.091v0.37a8.228,8.228,0,0,1,.456,2.82v1.28H942.9v0.64h-0.091v0.54h-0.091v0.37H942.63v0.27h-0.091c-0.031.22-.061,0.43-0.091,0.64h-0.092v0.18h-0.091v0.28h-0.091c-0.03.12-.061,0.24-0.091,0.36h-0.091v0.28H941.9v0.18h-0.091v0.18l-0.182.09c-0.031.12-.061,0.25-0.091,0.37l-0.183.09v0.18h-0.091v0.18l-0.273.18v0.19l-0.274.18v0.18h-0.091c-0.122.15-.243,0.31-0.365,0.46a0.178,0.178,0,0,1-.091-0.09,6.327,6.327,0,0,1-1.094-1.1c-0.365-.36-0.73-0.73-1.095-1.09a2.235,2.235,0,0,1-.456-0.46h2.827C940.454,4449.66,940.351,4449.73,940.533,4449.67Zm14.316-13.04c-0.975.09-1.758,1.24-2.1,2.01a1.765,1.765,0,0,1-.73-0.28c-0.1-.1-0.036,0-0.091-0.18a5.036,5.036,0,0,0,.547-1l0.365-.27c0.182-.22.365-0.43,0.547-0.64a6.335,6.335,0,0,1,1.185-.55v0.18A1.78,1.78,0,0,1,954.849,4436.63Zm-16.231,3.83v0.46h-8.663v-0.46c0.925-.15,1.957-0.36,2.827-0.55v-0.18h0.091v-0.45h0.091a3.652,3.652,0,0,1,.183-1.1h0.091l0.273-.36a0.958,0.958,0,0,0,.365-0.19c0.872,0,1.1.03,1.459,0.55l0.182,0.09v0.19h0.092V4439H935.7c0.146,0.51-.142.63,0.273,0.91a1.55,1.55,0,0,0,.821.19C937.323,4440.25,938.043,4440.36,938.618,4440.46Zm-8.572,9.3h6.018c0.821,0.85,1.642,1.7,2.463,2.56a2.625,2.625,0,0,1,.911,1h-0.091a1.116,1.116,0,0,1-.547.45c-0.061.1-.121,0.19-0.182,0.28h-0.183c-0.03.06-.06,0.12-0.091,0.18h-0.182c-0.031.06-.061,0.12-0.091,0.18l-0.365.09c-0.031.06-.061,0.13-0.091,0.19l-0.365.09v0.09l-0.547.18v0.09h-0.274v0.09h-0.182v0.09h-0.274v0.1H935.7v0.09h-0.274v0.09h-0.273v0.09h-0.365v0.09h-0.456v0.09h-0.547v0.09H932.6v0.09l-1.641-.09v-0.09H930.32v-0.09h-0.365v-0.09H929.59v-0.09h-0.364v-0.09h-0.274v-0.09h-0.274v-0.1H928.5v-0.09h-0.274v-0.09H928.04v-0.09h-0.273v-0.09h-0.183v-0.09H927.4c-0.031-.06-0.061-0.12-0.091-0.18-0.183-.06-0.365-0.13-0.548-0.19-0.03-.06-0.06-0.12-0.091-0.18H926.49v-0.09l-0.274-.09c-0.03-.06-0.06-0.12-0.091-0.18h-0.182c-0.091-.12-0.183-0.25-0.274-0.37a10.514,10.514,0,0,1-3.374-4.56v-0.27H922.2v-0.27h-0.091v-0.37h-0.091v-0.36h-0.091v-0.37h-0.092v-0.64a8.114,8.114,0,0,1,.183-3.83v-0.36h0.091v-0.27H922.2v-0.28H922.3v-0.27h0.092v-0.28h0.091v-0.18h0.091v-0.27h0.091c0.061-.18.122-0.37,0.182-0.55h0.092c0.03-.12.06-0.24,0.091-0.36l0.182-.09c0.031-.13.061-0.25,0.091-0.37l0.183-.09v-0.18l0.182-.09v-0.19l0.274-.18v-0.18h0.091c0.122-.15.243-0.3,0.365-0.46a0.178,0.178,0,0,1,.091.09,4.03,4.03,0,0,1,.729.73c0.548,0.55,1.1,1.1,1.642,1.64,0.273,0.25.547,0.49,0.82,0.73,0.791,0.83,1.581,1.65,2.371,2.47a9.24,9.24,0,0,1,1.459,1.46,3.2,3.2,0,0,0-1.459.36v0.09h-0.182v0.09l-0.274.09v-0.09l-0.273-.18v-0.09h-0.183l-0.182-.27H928.77v-0.1h-0.183l-0.091-.18h-0.274v-0.09h-0.273v-0.09h-0.365v-0.09a2.788,2.788,0,0,0-1.55.18h-0.273v0.09l-0.548.18v0.1h-0.182l-0.182.27c-0.244.21-.487,0.42-0.73,0.64l-0.182.54h-0.091v0.19h-0.092v0.27h-0.091a4.335,4.335,0,0,0-.091,1.55h0.091v0.37h0.091c0.031,0.18.061,0.36,0.092,0.54h0.091v0.19l0.182,0.09v0.18l0.182,0.09v0.18l0.183,0.09c0.091,0.12.182,0.25,0.273,0.37h0.183l0.091,0.18h0.182c0.031,0.06.061,0.12,0.091,0.18h0.183v0.09h0.182v0.09C927.39,4452.24,929.774,4451.04,930.046,4449.76Zm35.654-9.48a26.644,26.644,0,0,1,.182,4.74v8.12h-9.665v-8.12a26.418,26.418,0,0,1,.182-4.74l0.274-.09v-0.09h0.273v-0.09h8.207v0.09h0.274v0.09Zm-34.742,1.73c-0.03.4-.061,0.79-0.091,1.19h-0.091c-0.365-.4-0.73-0.79-1.095-1.19h1.277Zm1.094,0h4.468a0.147,0.147,0,0,0,.092.09c0.03,0.43.06,0.85,0.091,1.28h-0.091v0.36H936.52c-0.03.13-.06,0.25-0.091,0.37h-0.091v0.18l-0.274.18c-0.121.16-.243,0.31-0.364,0.46h-0.183v0.09l-0.364.09v0.09a3.844,3.844,0,0,1-1.459.09v-0.09H933.42v-0.09h-0.182v-0.09h-0.183c-0.03-.06-0.06-0.12-0.091-0.18h-0.182c-0.091-.12-0.183-0.25-0.274-0.37h-0.091v-0.18l-0.182-.09v-0.18h-0.092a0.719,0.719,0,0,0-.182-0.37l-0.091-1h0.091v-0.46S932.017,4442.19,932.052,4442.01Zm28.633,0.37a6.733,6.733,0,0,1-1,.27v0.09H959.5v0.09l-0.364.09c-0.061.09-.122,0.19-0.183,0.28H958.77l-0.274.36h-0.091v0.18c-0.091.07-.182,0.13-0.273,0.19l-0.183.54h-0.091v0.19h-0.091v0.36h-0.091l-0.092,1.19h0.092v0.45h0.091v0.37h0.091c0.03,0.12.061,0.24,0.091,0.36h0.091c0.031,0.12.061,0.24,0.092,0.37l0.273,0.18v0.18l0.365,0.27v0.1h0.182l0.183,0.27,0.547,0.18v0.09h0.182v0.09h0.365a2.27,2.27,0,0,0,1.185.19v-0.09h0.456v-0.1h0.365v-0.09l0.547-.18v-0.09h0.182l0.183-.27h0.182c0.091-.13.183-0.25,0.274-0.37h0.091v-0.18l0.273-.18c0.061-.19.122-0.37,0.183-0.55h0.091v-0.18h0.091v-0.37a2.147,2.147,0,0,0,0-1.64v-0.36h-0.091v-0.19H964.15l-0.183-.54A3.784,3.784,0,0,0,960.685,4442.38Zm2.644,2.82-1.368-.18v-0.09a2.115,2.115,0,0,0-1.094-.36v0.09l-0.456.09-0.091.18h-0.182v0.09l-1.368.18a3.972,3.972,0,0,1,.547-1.09H959.5l0.183-.27h0.182c0.03-.07.061-0.13,0.091-0.19h0.274v-0.09H960.5v-0.09a2.9,2.9,0,0,1,1.915.37l0.183,0.27,0.273,0.09A3.8,3.8,0,0,1,963.329,4445.2Zm-34.559,1.37a0.718,0.718,0,0,0,.182.37h0.091l0.274,0.72h-0.183a3.444,3.444,0,0,0-1.094-.18v-0.09h-0.273l-0.092-.18h-0.182v-0.09h-0.182v-0.09a1.283,1.283,0,0,0-.821.09l-0.182.27h-0.365c-0.323.11-.859,0.15-1.186,0.27v-0.27a0.738,0.738,0,0,0,.183-0.36h0.091v-0.19l0.182-.09,0.365-.45h0.183c0.03-.06.06-0.12,0.091-0.19h0.273v-0.09h0.183v-0.09h0.455v-0.09h0.456v0.09h0.456v0.09h0.274v0.09h0.182v0.1h0.183v0.09A1.051,1.051,0,0,0,928.77,4446.57Zm31.732,1.55c-0.666-.02-0.691-0.41-1.185-0.55a0.692,0.692,0,0,0-.182-0.36h-0.092v-0.18l-0.182-.09v-0.28H958.77c-0.058-.14-0.043-0.25-0.091-0.36h0.182v-0.09h0.547a4.753,4.753,0,0,1,.73-0.19c0.03,0.06.06,0.13,0.091,0.19l0.273,0.18v1.73Zm2.28-.55a0.756,0.756,0,0,0-.365.19v0.09a1.364,1.364,0,0,1-.82.27v-1.73a0.861,0.861,0,0,0,.364-0.37c0.487,0.09.973,0.19,1.459,0.28v0.09h-0.091c-0.03.18-.061,0.36-0.091,0.55l-0.182.09v0.18h-0.092A0.75,0.75,0,0,0,962.782,4447.57Zm-32.371,1.19v-1.19a2.547,2.547,0,0,1-.182-0.73l0.273-.09v-0.09h0.182v-0.09l0.548-.09v-0.09h1.459l2.279,2.37h-4.559Zm9.119,0h-3.1l-2.279-2.37h3.191v0.09h0.365v0.09l0.547,0.18v0.09h0.182c0.061,0.1.122,0.19,0.183,0.28A2.236,2.236,0,0,1,939.53,4448.76Zm-13.04,1.82a2.226,2.226,0,0,1-1.824-1.91l1.459-.18,0.274,0.36h0.091v1.73Zm1.368-2.09,1.459,0.18a2.1,2.1,0,0,1-1.824,1.91v-1.73A0.362,0.362,0,0,0,927.858,4448.49Zm30.274,2.18v1.01h1v-1.01h-1Zm2.37,0v1.01h1.1v-1.01h-1.1Zm2.462,0v1.01h1v-1.01h-1Zm-6.747,3.47h9.665c0.023,0.81.14,1.89-.364,2.19-0.331.33-1.467,0.18-2.1,0.18h-5.106c-0.769,0-1.62.12-1.915-.36C956.082,4455.83,956.207,4454.75,956.217,4454.14Zm4.285,0.46v1h1.1v-1h-1.1Z" transform="translate(-921.688 -4411.84)"/>
</svg>
