<svg xmlns="http://www.w3.org/2000/svg" width="52.563" height="53.75" viewBox="0 0 52.563 53.75">
  <defs>
    <style>
      .cls-1 {
        fill: #16c56d;
        fill-rule: evenodd;
      }
    </style>
  </defs>
  <path id="Pump_Monitoring" data-name="Pump Monitoring" class="cls-1" d="M693.258,1138.88a0.878,0.878,0,0,0,.219.44h0.11v0.22c0.073,0.04.146,0.07,0.219,0.11,0.037,0.18.073,0.37,0.11,0.55h0.109v0.77a2.692,2.692,0,0,1-2.3,2.84v14.69a8.5,8.5,0,0,0,2.3.11h4.712a7.991,7.991,0,0,0,.109-2.2v-4.6a0.78,0.78,0,0,0,.219-0.22h0.22v-0.11c0.255-.03.511-0.07,0.767-0.11v-0.1h0.328v-0.11h0.329v-0.11c0.365-.08.73-0.15,1.1-0.22v-0.11h0.438v-0.11l2.41-.66v-3.73a5.745,5.745,0,0,1-1.533-.76v-0.22l-0.439-.33a1.011,1.011,0,0,0-.219-0.44,4.362,4.362,0,0,1,.329-2.85l0.438-.33c0.073-.11.146-0.21,0.219-0.32h0.219c0.037-.08.073-0.15,0.11-0.22H704v-0.11h0.329a1.988,1.988,0,0,1,1.315-.22v0.11c0.255,0.03.511,0.07,0.767,0.11v0.11h0.219c0.036,0.07.073,0.14,0.109,0.22h0.219l0.11,0.21c0.183,0.15.365,0.3,0.548,0.44l0.219,0.66h0.11v0.33a2.562,2.562,0,0,1-.11,1.86,1.6,1.6,0,0,1-.438.77h-0.11c-0.036.11-.073,0.22-0.109,0.33h-0.22c-0.036.07-.073,0.14-0.109,0.22h-0.219v0.11c-0.292.11-.585,0.22-0.877,0.32v4.39a1.624,1.624,0,0,0-.329.33h-0.438v0.11h-0.329v0.11h-0.328v0.11l-1.1.21v0.11h-0.438v0.11c-0.95.26-1.9,0.51-2.849,0.77v6.14a13.171,13.171,0,0,1,2.411.11,2.3,2.3,0,0,0,.438.54V1162H679.562a17.811,17.811,0,0,1,.11-2.96,2.358,2.358,0,0,0,.548-0.43h2.191v-6.14l-1.424-.33v-0.11h-0.329v-0.11H680.22v-0.11h-0.329v-0.11h-0.329v-0.11c-0.365-.07-0.73-0.14-1.1-0.22v-0.1h-0.439v-0.11H677.7v-0.11c-0.556-.22-0.619.06-0.986-0.44H676.6v-4.39a5.752,5.752,0,0,1-1.534-.76v-0.22l-0.438-.33a1.022,1.022,0,0,0-.219-0.44,4.362,4.362,0,0,1,.328-2.85l0.438-.33c0.073-.11.147-0.21,0.22-0.32h0.219c0.036-.08.073-0.15,0.109-0.22h0.219v-0.11h0.329a1.989,1.989,0,0,1,1.315-.22v0.11c0.256,0.03.511,0.07,0.767,0.11v0.11h0.219c0.037,0.07.073,0.14,0.11,0.22h0.219l0.109,0.21c0.183,0.15.366,0.3,0.548,0.44l0.219,0.66h0.11v0.33a2.562,2.562,0,0,1-.11,1.86,1.6,1.6,0,0,1-.438.77h-0.11c-0.036.11-.073,0.22-0.109,0.33h-0.219c-0.037.07-.073,0.14-0.11,0.22h-0.219v0.11c-0.292.11-.584,0.22-0.877,0.32v3.73l1.315,0.33v0.11h0.439v0.11c0.365,0.07.73,0.14,1.1,0.22v0.11h0.329v0.11h0.329v0.11c0.255,0.03.511,0.07,0.767,0.11v0.11c0.585,0.22,1.063.07,1.424,0.54h0.11v6.69a8.5,8.5,0,0,0,2.3.11h4.711c0.325-.89.11-3.42,0.11-4.61v-10.19a2.7,2.7,0,0,1-2.3-2.84v-0.77h0.109c0.037-.18.073-0.37,0.11-0.55,0.073-.04.146-0.07,0.219-0.11v-0.22h0.11a0.886,0.886,0,0,0,.219-0.44,0.833,0.833,0,0,0,.438-0.22v-0.1a3.567,3.567,0,0,1,2.3-.44v0.11l0.986,0.33v0.1A0.833,0.833,0,0,0,693.258,1138.88Zm-2.191.88v0.11h-0.438c-0.146.18-.293,0.37-0.439,0.55h-0.109v0.33h-0.11a1.117,1.117,0,0,0,.548,1.2v0.11a1.918,1.918,0,0,0,1.315,0l0.219-.33a2.242,2.242,0,0,0,.219-0.11c0.037-.29.073-0.58,0.11-0.87h-0.11v-0.33a2.242,2.242,0,0,0-.219-0.11A1.27,1.27,0,0,0,691.067,1139.76Zm-14.354,2.41c-0.219.18-.438,0.37-0.657,0.55v0.33a1.051,1.051,0,0,0,.986,1.42v0.11c0.219-.04.438-0.07,0.657-0.11,0.147-.18.293-0.36,0.439-0.55h0.109v-0.32c0.307-.84-0.284-0.99-0.657-1.43h-0.877Zm28.05,0c-0.219.18-.438,0.37-0.657,0.55v0.33a1.051,1.051,0,0,0,.986,1.42v0.11c0.219-.04.438-0.07,0.657-0.11,0.146-.18.292-0.36,0.438-0.55h0.11v-0.32c0.307-.84-0.284-0.99-0.657-1.43h-0.877Zm-25.2,21.04h23.229v9.31a6.047,6.047,0,0,0,1.753.11h3.506a5.807,5.807,0,0,0,.11-1.64v-13.92c0.755-.39,2.394-0.23,3.506-0.22a6.027,6.027,0,0,1,.548-1.31l0.438-.33v-0.11h0.219c0.037-.07.073-0.15,0.11-0.22H713.2v-0.11c0.146-.04.292-0.07,0.438-0.11v-0.11h0.438v-0.11c0.475,0.04.95,0.08,1.425,0.11v0.11c0.146,0.04.292,0.07,0.438,0.11v0.11h0.219l0.219,0.33c0.11,0.04.22,0.07,0.329,0.11v0.22c0.11,0.07.219,0.14,0.329,0.22v0.22h0.109a0.852,0.852,0,0,0,.219.43,3.617,3.617,0,0,1,0,1.43v0.44h-0.109c-0.037.14-.073,0.29-0.11,0.44h-0.109v0.21a2.242,2.242,0,0,1-.219.11v0.22l-0.439.33v0.11a3.945,3.945,0,0,0-.767.44c-0.547.04-1.1,0.07-1.643,0.11a2.806,2.806,0,0,1-2.192-2.3h-2.52v15.45a2.17,2.17,0,0,0-.328.33h-6.136v4.05a15.445,15.445,0,0,0,3.944.11c0.037,0.11.073,0.22,0.11,0.33a4.68,4.68,0,0,1,.109,1.97v5.26h3.616a2.7,2.7,0,0,1,2.849-2.3h0.767v0.11c0.183,0.04.365,0.07,0.548,0.11,0.036,0.07.073,0.15,0.109,0.22h0.22v0.11a0.907,0.907,0,0,0,.438.22,0.962,0.962,0,0,0,.219.44h0.11a3.607,3.607,0,0,1,.438,2.3h-0.11c-0.109.32-.219,0.65-0.328,0.98h-0.11a0.776,0.776,0,0,1-.657.66v0.11h-0.22c-0.036.07-.073,0.14-0.109,0.22-0.183.03-.365,0.07-0.548,0.11v0.11h-0.767a2.7,2.7,0,0,1-2.849-2.3h-4.492a6.392,6.392,0,0,1-.219-2.52v-5.04h-3.068v5.26H679.562v-5.26h-3.068v7.34c-0.891.46-3.393,0.22-4.711,0.22a2.711,2.711,0,0,1-2.849,2.3h-0.767v-0.11c-0.182-.04-0.365-0.08-0.548-0.11-0.036-.08-0.073-0.15-0.109-0.22h-0.22v-0.11a0.776,0.776,0,0,1-.657-0.66h-0.109a3.615,3.615,0,0,1-.439-2.3h0.11c0.109-.33.219-0.66,0.329-0.98h0.109a0.962,0.962,0,0,0,.219-0.44,0.9,0.9,0,0,0,.438-0.22v-0.11h0.22c0.036-.07.073-0.15,0.109-0.22,0.183-.04.366-0.07,0.548-0.11v-0.11h0.767a2.7,2.7,0,0,1,2.849,2.3H675.4v-4.49a19.041,19.041,0,0,1,.109-2.96,15.453,15.453,0,0,1,3.945-.11,18.7,18.7,0,0,0,.109-4.16h-6.136a1.992,1.992,0,0,0-.328-0.33v-15.45h-2.52a2.9,2.9,0,0,1-3.835,2.19v-0.11c-0.146-.04-0.293-0.07-0.439-0.11-0.036-.07-0.073-0.15-0.109-0.22h-0.219c-0.11-.14-0.22-0.29-0.329-0.44h-0.11v-0.22a2.242,2.242,0,0,1-.219-0.11v-0.21h-0.109c-0.037-.15-0.073-0.3-0.11-0.44H664.99v-0.44h-0.11c0.036-.48.073-0.95,0.11-1.43H665.1c0.037-.14.073-0.29,0.11-0.43h0.109v-0.22c0.11-.08.219-0.15,0.329-0.22v-0.22c0.109-.04.219-0.07,0.329-0.11l0.219-.33h0.219v-0.11a0.87,0.87,0,0,0,.438-0.22,4.008,4.008,0,0,1,1.425,0h0.438v0.11c0.146,0.04.292,0.07,0.438,0.11v0.11h0.219c0.037,0.07.073,0.15,0.11,0.22H669.7c0.11,0.15.219,0.29,0.329,0.44h0.109v0.22a2.242,2.242,0,0,1,.219.11c0.037,0.18.073,0.36,0.11,0.54h0.11a0.83,0.83,0,0,0,.109.44h3.287c0.464,0.91.219,3.38,0.219,4.71v10.96a6.049,6.049,0,0,0,1.753.11h3.507a10.85,10.85,0,0,0,.109-2.96v-6.46ZM667.4,1156.2c-0.5.58-.777,0.34-0.767,1.53a1.031,1.031,0,0,1,.219.44c0.075,0.1.335,0.2,0.438,0.33a1.748,1.748,0,0,0,1.206-.11c0.036-.08.073-0.15,0.109-0.22a2.242,2.242,0,0,1,.219-0.11v-0.22h0.11c0.037-.18.073-0.37,0.11-0.55h-0.11q-0.054-.33-0.11-0.66A1.976,1.976,0,0,0,667.4,1156.2Zm46.786,0a1.234,1.234,0,0,0-.657.65,1.091,1.091,0,0,0-.11.99h0.11v0.22c0.109,0.07.219,0.14,0.328,0.22v0.11c0.183,0.03.366,0.07,0.548,0.11v0.11c0.292-.08.585-0.15,0.877-0.22a1.971,1.971,0,0,0,.438-1.43,4.2,4.2,0,0,1-.329-0.44c-0.131-.13-0.319-0.18-0.438-0.32h-0.767Zm-24.763,3.5v1.21h3.507v-1.21h-3.507Zm1.1,16.44v5.69a3.655,3.655,0,0,0,1.205.11,7.029,7.029,0,0,0,.11-1.97v-3.83l2.41-.33v-0.11h0.329v-0.11h0.219v-0.11h0.329v-0.11h0.219v-0.11h0.219c0.037-.07.073-0.15,0.11-0.22,0.146-.03.292-0.07,0.438-0.11l0.219-.33h0.219c0.11-.14.22-0.29,0.329-0.43h0.219v-0.11c0.11-.08.219-0.15,0.329-0.22v-0.22c0.182-.15.365-0.3,0.548-0.44v-0.22c0.073-.04.146-0.07,0.219-0.11v-0.22c0.073-.04.146-0.07,0.219-0.11,0.037-.14.073-0.29,0.11-0.44h0.109c0.037-.14.073-0.29,0.11-0.43h0.109v-0.33h0.11v-0.22h0.109v-0.44a7.739,7.739,0,0,0,.329-2.74,3.094,3.094,0,0,0-.986-0.11,3.982,3.982,0,0,1-1.205.11v0.11h-0.548v0.11h-0.329v0.11H696v0.11h-0.329a7.668,7.668,0,0,0-4.383,5.37h-0.219l-0.657-1.98H690.3v-0.21h-0.11c-0.036-.11-0.073-0.22-0.109-0.33a2.242,2.242,0,0,0-.219-0.11v-0.22c-0.11-.08-0.219-0.15-0.329-0.22-1.289-1.82-3.357-2.86-6.465-2.85a6.048,6.048,0,0,0-.109,1.75,3.729,3.729,0,0,1,.219,1.1l0.767,1.86c0.073,0.04.146,0.07,0.219,0.11v0.22c0.073,0.04.146,0.07,0.219,0.11v0.22c0.183,0.14.365,0.29,0.548,0.44v0.22h0.11l0.219,0.33h0.219l0.438,0.54h0.219c0.037,0.08.073,0.15,0.11,0.22A9.292,9.292,0,0,0,690.519,1176.14Zm-21.8,8.65v0.11h-0.329a1.564,1.564,0,0,0-.548.99h-0.109c0.036,0.22.073,0.44,0.109,0.66a3.769,3.769,0,0,0,.877.65,1.2,1.2,0,0,0,.876-2.19A1.145,1.145,0,0,0,668.715,1184.79Zm44.375,0v0.11h-0.328a2.181,2.181,0,0,0-.439.66,1.335,1.335,0,0,0,0,1.1,2.242,2.242,0,0,1,.219.11c0.073,0.11.147,0.21,0.22,0.32h0.328a1.053,1.053,0,0,0,1.425-.98h0.109c-0.036-.22-0.073-0.44-0.109-0.66A1.935,1.935,0,0,0,713.09,1184.79Zm-33.528.66h23.229a36.168,36.168,0,0,1-.11,5.92,2.157,2.157,0,0,0-.548.44H682.959a19.961,19.961,0,0,1-2.958-.11,2.388,2.388,0,0,0-.439-0.55v-5.7Zm11.286,1.1v0.11h-0.329v0.11H690.3v0.11a0.917,0.917,0,0,0-.657.65,1.939,1.939,0,0,0-.22,1.32h0.11v0.33a2.242,2.242,0,0,1,.219.11v0.21c0.256,0.19.511,0.37,0.767,0.55a1.841,1.841,0,0,0,1.315-.11c0.861-.19,1.124-0.96,1.1-2.08h-0.11c-0.036-.18-0.073-0.36-0.11-0.55A2.593,2.593,0,0,0,690.848,1186.55Z" transform="translate(-664.875 -1138.06)"/>
</svg>
